<mxfile host="Electron" modified="2024-12-26T09:01:22.060Z" agent="Mozilla/5.0 (Windows NT 10.0; Win64; x64) AppleWebKit/537.36 (KHTML, like Gecko) draw.io/24.1.0 Chrome/120.0.6099.109 Electron/28.1.0 Safari/537.36" etag="DTCN48q2pTdNyb8Ygy3d" version="24.1.0" type="device" pages="7">
  <diagram id="kjPZGrloloHmQdD1XfUv" name="ds-create-java-udf">
    <mxGraphModel dx="2261" dy="836" grid="1" gridSize="10" guides="1" tooltips="1" connect="1" arrows="1" fold="1" page="1" pageScale="1" pageWidth="827" pageHeight="1169" math="0" shadow="0">
      <root>
        <mxCell id="0" />
        <mxCell id="1" parent="0" />
        <mxCell id="XnFV_lVw6NPvR9sDjzwX-2" value="&lt;p style=&quot;line-height: 120%;&quot;&gt;&lt;font style=&quot;&quot;&gt;&lt;font style=&quot;font-size: 16px;&quot;&gt;ConnectProcessor.java&lt;/font&gt;&lt;br&gt;&lt;b style=&quot;font-size: 20px;&quot;&gt;executeQuery&lt;/b&gt;&lt;/font&gt;&lt;/p&gt;" style="rounded=1;whiteSpace=wrap;html=1;fillColor=none;arcSize=20;" parent="1" vertex="1">
          <mxGeometry x="20" y="462" width="190" height="70" as="geometry" />
        </mxCell>
        <mxCell id="XnFV_lVw6NPvR9sDjzwX-3" value="&lt;div class=&quot;lake-content&quot;&gt;&lt;span class=&quot;ne-text&quot;&gt;&lt;font style=&quot;font-size: 16px;&quot;&gt;NereidsParser.java&lt;/font&gt;&lt;/span&gt;&lt;/div&gt;&lt;div class=&quot;lake-content&quot;&gt;&lt;span class=&quot;ne-text&quot;&gt;&lt;font style=&quot;font-size: 20px;&quot;&gt;&lt;b&gt;parseSQL&lt;/b&gt;&lt;/font&gt;&lt;/span&gt;&lt;/div&gt;" style="rounded=1;whiteSpace=wrap;html=1;fillColor=none;" parent="1" vertex="1">
          <mxGeometry x="320" y="352" width="190" height="60" as="geometry" />
        </mxCell>
        <mxCell id="XnFV_lVw6NPvR9sDjzwX-4" value="&lt;div class=&quot;lake-content&quot;&gt;&lt;span class=&quot;ne-text&quot;&gt;&lt;font size=&quot;1&quot; style=&quot;&quot;&gt;&lt;div style=&quot;&quot; class=&quot;lake-content&quot;&gt;&lt;span style=&quot;font-size: 16px;&quot; class=&quot;ne-text&quot;&gt;StmtExecutor.java&lt;/span&gt;&lt;/div&gt;&lt;/font&gt;&lt;/span&gt;&lt;/div&gt;&lt;div class=&quot;lake-content&quot;&gt;&lt;b style=&quot;font-size: 20px;&quot;&gt;executor.execute()&lt;/b&gt;&lt;br&gt;&lt;/div&gt;" style="rounded=1;whiteSpace=wrap;html=1;fillColor=none;" parent="1" vertex="1">
          <mxGeometry x="310" y="532" width="190" height="60" as="geometry" />
        </mxCell>
        <mxCell id="XnFV_lVw6NPvR9sDjzwX-5" value="" style="curved=1;endArrow=classic;html=1;rounded=0;exitX=1;exitY=0.5;exitDx=0;exitDy=0;" parent="1" source="XnFV_lVw6NPvR9sDjzwX-2" edge="1">
          <mxGeometry width="50" height="50" relative="1" as="geometry">
            <mxPoint x="270" y="442" as="sourcePoint" />
            <mxPoint x="320" y="392" as="targetPoint" />
            <Array as="points">
              <mxPoint x="230" y="442" />
              <mxPoint x="270" y="392" />
            </Array>
          </mxGeometry>
        </mxCell>
        <mxCell id="XnFV_lVw6NPvR9sDjzwX-6" value="" style="curved=1;endArrow=classic;html=1;rounded=0;entryX=0;entryY=0.5;entryDx=0;entryDy=0;exitX=1;exitY=0.5;exitDx=0;exitDy=0;" parent="1" source="XnFV_lVw6NPvR9sDjzwX-2" target="XnFV_lVw6NPvR9sDjzwX-4" edge="1">
          <mxGeometry width="50" height="50" relative="1" as="geometry">
            <mxPoint x="230" y="522" as="sourcePoint" />
            <mxPoint x="280" y="472" as="targetPoint" />
            <Array as="points">
              <mxPoint x="220" y="532" />
              <mxPoint x="250" y="552" />
              <mxPoint x="280" y="562" />
            </Array>
          </mxGeometry>
        </mxCell>
        <mxCell id="XnFV_lVw6NPvR9sDjzwX-7" value="&lt;font style=&quot;font-size: 14px;&quot;&gt;Nereids 解析输入的 SQL 语句&lt;/font&gt;" style="text;html=1;align=left;verticalAlign=middle;whiteSpace=wrap;rounded=0;fontFamily=阿里巴巴普惠体;" parent="1" vertex="1">
          <mxGeometry x="327.5" y="322" width="192.5" height="30" as="geometry" />
        </mxCell>
        <mxCell id="XnFV_lVw6NPvR9sDjzwX-8" value="" style="edgeStyle=orthogonalEdgeStyle;rounded=0;orthogonalLoop=1;jettySize=auto;html=1;" parent="1" source="XnFV_lVw6NPvR9sDjzwX-9" target="XnFV_lVw6NPvR9sDjzwX-15" edge="1">
          <mxGeometry relative="1" as="geometry" />
        </mxCell>
        <mxCell id="XnFV_lVw6NPvR9sDjzwX-9" value="&lt;div class=&quot;lake-content&quot;&gt;&lt;div class=&quot;lake-content&quot;&gt;&lt;span style=&quot;font-size: 20px; background-color: initial;&quot;&gt;executeByNereids&lt;/span&gt;&lt;/div&gt;&lt;/div&gt;" style="rounded=1;whiteSpace=wrap;html=1;fillColor=none;fontStyle=1" parent="1" vertex="1">
          <mxGeometry x="590" y="437" width="180" height="50" as="geometry" />
        </mxCell>
        <mxCell id="XnFV_lVw6NPvR9sDjzwX-10" value="" style="edgeStyle=orthogonalEdgeStyle;rounded=0;orthogonalLoop=1;jettySize=auto;html=1;" parent="1" source="XnFV_lVw6NPvR9sDjzwX-11" edge="1">
          <mxGeometry relative="1" as="geometry">
            <mxPoint x="860" y="617" as="targetPoint" />
          </mxGeometry>
        </mxCell>
        <mxCell id="XnFV_lVw6NPvR9sDjzwX-11" value="&lt;div class=&quot;lake-content&quot;&gt;&lt;div class=&quot;lake-content&quot;&gt;&lt;span style=&quot;font-size: 20px; background-color: initial;&quot;&gt;executeByLegacy&lt;/span&gt;&lt;br&gt;&lt;/div&gt;&lt;/div&gt;" style="rounded=1;whiteSpace=wrap;html=1;fillColor=none;fontStyle=1" parent="1" vertex="1">
          <mxGeometry x="590" y="592" width="178" height="50" as="geometry" />
        </mxCell>
        <mxCell id="XnFV_lVw6NPvR9sDjzwX-12" value="" style="curved=1;endArrow=classic;html=1;rounded=0;exitX=1;exitY=0.75;exitDx=0;exitDy=0;" parent="1" source="XnFV_lVw6NPvR9sDjzwX-4" edge="1">
          <mxGeometry width="50" height="50" relative="1" as="geometry">
            <mxPoint x="490" y="562" as="sourcePoint" />
            <mxPoint x="590" y="622" as="targetPoint" />
            <Array as="points">
              <mxPoint x="530" y="612" />
              <mxPoint x="560" y="622" />
            </Array>
          </mxGeometry>
        </mxCell>
        <mxCell id="XnFV_lVw6NPvR9sDjzwX-13" value="" style="curved=1;endArrow=classic;html=1;rounded=0;exitX=1;exitY=0.25;exitDx=0;exitDy=0;entryX=0;entryY=0.617;entryDx=0;entryDy=0;entryPerimeter=0;" parent="1" source="XnFV_lVw6NPvR9sDjzwX-4" target="XnFV_lVw6NPvR9sDjzwX-9" edge="1">
          <mxGeometry width="50" height="50" relative="1" as="geometry">
            <mxPoint x="490" y="562" as="sourcePoint" />
            <mxPoint x="600" y="452" as="targetPoint" />
            <Array as="points">
              <mxPoint x="500" y="522" />
              <mxPoint x="560" y="472" />
            </Array>
          </mxGeometry>
        </mxCell>
        <mxCell id="XnFV_lVw6NPvR9sDjzwX-14" value="&lt;font style=&quot;font-size: 24px;&quot;&gt;create function&amp;nbsp;&lt;/font&gt;&lt;div style=&quot;font-size: 24px;&quot;&gt;&lt;font style=&quot;font-size: 24px;&quot;&gt;代码流程图&lt;/font&gt;&lt;/div&gt;" style="rounded=1;whiteSpace=wrap;html=1;fillColor=#f8cecc;strokeColor=#b85450;fontFamily=Helvetica;fontSize=24;" parent="1" vertex="1">
          <mxGeometry x="-10" y="192" width="190" height="60" as="geometry" />
        </mxCell>
        <mxCell id="XnFV_lVw6NPvR9sDjzwX-15" value="&lt;font style=&quot;font-size: 20px;&quot;&gt;((Command) &lt;font style=&quot;background-color: rgb(255, 255, 0);&quot; color=&quot;#ff0000&quot;&gt;logicalPlan&lt;/font&gt;).run(context, this)&lt;/font&gt;" style="rounded=1;whiteSpace=wrap;html=1;fillColor=none;align=left;" parent="1" vertex="1">
          <mxGeometry x="840" y="437" width="390" height="50" as="geometry" />
        </mxCell>
        <mxCell id="XnFV_lVw6NPvR9sDjzwX-16" value="&lt;span style=&quot;font-size: 18px;&quot;&gt;运行逻辑计划 logicalPlan&lt;/span&gt;" style="text;html=1;align=left;verticalAlign=middle;whiteSpace=wrap;rounded=0;fontFamily=阿里巴巴普惠体;" parent="1" vertex="1">
          <mxGeometry x="930" y="402" width="210" height="30" as="geometry" />
        </mxCell>
        <mxCell id="XnFV_lVw6NPvR9sDjzwX-17" value="" style="curved=1;endArrow=classic;html=1;rounded=0;exitX=1;exitY=0.5;exitDx=0;exitDy=0;entryX=0;entryY=0.5;entryDx=0;entryDy=0;" parent="1" source="XnFV_lVw6NPvR9sDjzwX-11" target="XnFV_lVw6NPvR9sDjzwX-18" edge="1">
          <mxGeometry width="50" height="50" relative="1" as="geometry">
            <mxPoint x="760" y="622" as="sourcePoint" />
            <mxPoint x="860" y="522" as="targetPoint" />
            <Array as="points">
              <mxPoint x="780" y="582" />
              <mxPoint x="820" y="542" />
            </Array>
          </mxGeometry>
        </mxCell>
        <mxCell id="XnFV_lVw6NPvR9sDjzwX-18" value="&lt;div class=&quot;lake-content&quot;&gt;&lt;div class=&quot;lake-content&quot;&gt;&lt;span class=&quot;ne-text&quot;&gt;&lt;font style=&quot;font-size: 20px;&quot;&gt;parseByLegacy&lt;/font&gt;&lt;/span&gt;&lt;/div&gt;&lt;/div&gt;" style="rounded=1;whiteSpace=wrap;html=1;fillColor=none;fontStyle=1" parent="1" vertex="1">
          <mxGeometry x="860" y="512" width="160" height="50" as="geometry" />
        </mxCell>
        <mxCell id="XnFV_lVw6NPvR9sDjzwX-19" value="" style="curved=1;endArrow=classic;html=1;rounded=0;exitX=1;exitY=0.5;exitDx=0;exitDy=0;" parent="1" source="XnFV_lVw6NPvR9sDjzwX-11" edge="1">
          <mxGeometry width="50" height="50" relative="1" as="geometry">
            <mxPoint x="761" y="618" as="sourcePoint" />
            <mxPoint x="860" y="692" as="targetPoint" />
            <Array as="points">
              <mxPoint x="780" y="652" />
              <mxPoint x="790" y="672" />
              <mxPoint x="801" y="682" />
              <mxPoint x="830" y="692" />
            </Array>
          </mxGeometry>
        </mxCell>
        <mxCell id="XnFV_lVw6NPvR9sDjzwX-20" value="" style="edgeStyle=orthogonalEdgeStyle;rounded=0;orthogonalLoop=1;jettySize=auto;html=1;" parent="1" source="XnFV_lVw6NPvR9sDjzwX-21" target="XnFV_lVw6NPvR9sDjzwX-28" edge="1">
          <mxGeometry relative="1" as="geometry" />
        </mxCell>
        <mxCell id="XnFV_lVw6NPvR9sDjzwX-21" value="&lt;div class=&quot;lake-content&quot;&gt;&lt;div class=&quot;lake-content&quot;&gt;&lt;span class=&quot;ne-text&quot;&gt;&lt;font style=&quot;font-size: 20px;&quot;&gt;handleDdlStmt&lt;/font&gt;&lt;/span&gt;&lt;/div&gt;&lt;/div&gt;" style="rounded=1;whiteSpace=wrap;html=1;fillColor=none;fontStyle=1" parent="1" vertex="1">
          <mxGeometry x="860" y="682" width="150" height="50" as="geometry" />
        </mxCell>
        <mxCell id="XnFV_lVw6NPvR9sDjzwX-22" value="&lt;font style=&quot;font-size: 18px;&quot;&gt;解析语句&lt;/font&gt;" style="text;html=1;align=center;verticalAlign=middle;whiteSpace=wrap;rounded=0;" parent="1" vertex="1">
          <mxGeometry x="768" y="511" width="90" height="30" as="geometry" />
        </mxCell>
        <mxCell id="XnFV_lVw6NPvR9sDjzwX-23" value="&lt;font style=&quot;font-size: 18px;&quot;&gt;分析语句&lt;/font&gt;" style="text;html=1;align=center;verticalAlign=middle;whiteSpace=wrap;rounded=0;" parent="1" vertex="1">
          <mxGeometry x="773" y="587" width="90" height="30" as="geometry" />
        </mxCell>
        <mxCell id="XnFV_lVw6NPvR9sDjzwX-24" value="&lt;font style=&quot;font-size: 18px;&quot;&gt;执行语句&lt;/font&gt;" style="text;html=1;align=center;verticalAlign=middle;whiteSpace=wrap;rounded=0;" parent="1" vertex="1">
          <mxGeometry x="790" y="652" width="90" height="30" as="geometry" />
        </mxCell>
        <mxCell id="XnFV_lVw6NPvR9sDjzwX-25" value="&lt;div class=&quot;lake-content&quot; style=&quot;font-size: 20px;&quot;&gt;&lt;div class=&quot;lake-content&quot; style=&quot;font-size: 20px;&quot;&gt;&lt;div class=&quot;lake-content&quot; style=&quot;line-height: 100%; font-size: 20px;&quot;&gt;&lt;h5 id=&quot;VZi8U&quot; data-lake-index-type=&quot;2&quot; style=&quot;line-height: 100%; margin: 8px 0px 5px; font-size: 20px;&quot;&gt;&lt;span style=&quot;font-size: 20px;&quot;&gt;&lt;font style=&quot;font-size: 20px;&quot;&gt;analyze&lt;/font&gt;&lt;/span&gt;&lt;/h5&gt;&lt;/div&gt;&lt;/div&gt;&lt;/div&gt;" style="rounded=1;whiteSpace=wrap;html=1;fillColor=none;fontSize=20;fontStyle=1" parent="1" vertex="1">
          <mxGeometry x="860" y="592" width="150" height="45" as="geometry" />
        </mxCell>
        <mxCell id="XnFV_lVw6NPvR9sDjzwX-26" value="&lt;div style=&quot;&quot; class=&quot;lake-content&quot;&gt;&lt;div style=&quot;&quot; class=&quot;lake-content&quot;&gt;&lt;div style=&quot;line-height: 100%;&quot; class=&quot;lake-content&quot;&gt;&lt;h5 style=&quot;line-height: 100%; margin: 8px 0px 5px;&quot; data-lake-index-type=&quot;2&quot; id=&quot;VZi8U&quot;&gt;&lt;div style=&quot;&quot; class=&quot;lake-content&quot;&gt;&lt;span style=&quot;font-weight: normal;&quot; class=&quot;ne-text&quot;&gt;&lt;font style=&quot;font-size: 16px;&quot;&gt;CreateFunctionStmt.java&lt;/font&gt;&lt;/span&gt;&lt;/div&gt;&lt;div style=&quot;font-size: 20px;&quot; class=&quot;lake-content&quot;&gt;&lt;span style=&quot;background-color: initial;&quot;&gt;analyze&lt;/span&gt;&lt;/div&gt;&lt;/h5&gt;&lt;/div&gt;&lt;/div&gt;&lt;/div&gt;" style="rounded=1;whiteSpace=wrap;html=1;fillColor=none;fontSize=20;" parent="1" vertex="1">
          <mxGeometry x="1070" y="572" width="200" height="60" as="geometry" />
        </mxCell>
        <mxCell id="XnFV_lVw6NPvR9sDjzwX-27" value="" style="endArrow=classic;html=1;rounded=0;" parent="1" edge="1">
          <mxGeometry width="50" height="50" relative="1" as="geometry">
            <mxPoint x="1010" y="614" as="sourcePoint" />
            <mxPoint x="1070" y="614" as="targetPoint" />
          </mxGeometry>
        </mxCell>
        <mxCell id="qhg3tYRADk5aRe0KpV4v-2" value="" style="edgeStyle=orthogonalEdgeStyle;rounded=0;orthogonalLoop=1;jettySize=auto;html=1;" parent="1" source="XnFV_lVw6NPvR9sDjzwX-28" target="qhg3tYRADk5aRe0KpV4v-1" edge="1">
          <mxGeometry relative="1" as="geometry" />
        </mxCell>
        <mxCell id="XnFV_lVw6NPvR9sDjzwX-28" value="&lt;div style=&quot;font-size: 16px;&quot; class=&quot;lake-content&quot;&gt;&lt;div class=&quot;lake-content&quot;&gt;&lt;span class=&quot;ne-text&quot;&gt;&lt;font style=&quot;font-size: 16px;&quot;&gt;Env.java&lt;/font&gt;&lt;/span&gt;&lt;/div&gt;&lt;div class=&quot;lake-content&quot;&gt;&lt;span class=&quot;ne-text&quot;&gt;&lt;font style=&quot;font-size: 20px;&quot;&gt;&lt;b&gt;createFunction&lt;/b&gt;&lt;/font&gt;&lt;/span&gt;&lt;/div&gt;&lt;/div&gt;" style="rounded=1;whiteSpace=wrap;html=1;fillColor=none;" parent="1" vertex="1">
          <mxGeometry x="1080" y="682" width="150" height="50" as="geometry" />
        </mxCell>
        <mxCell id="XnFV_lVw6NPvR9sDjzwX-29" value="&lt;span style=&quot;font-size: 18px;&quot;&gt;在 DB 中&lt;/span&gt;&lt;span style=&quot;font-size: 18px; background-color: initial;&quot;&gt;注册函数&lt;/span&gt;" style="text;html=1;align=center;verticalAlign=middle;whiteSpace=wrap;rounded=0;" parent="1" vertex="1">
          <mxGeometry x="1080" y="652" width="150" height="30" as="geometry" />
        </mxCell>
        <mxCell id="bK3vjq3PmsMWqogilILh-2" value="&lt;span style=&quot;font-size: 18px;&quot;&gt;若 Nereids 不支持执行当前的逻辑计划，则回退到 legacy planner 处理。&lt;/span&gt;" style="text;html=1;align=left;verticalAlign=middle;whiteSpace=wrap;rounded=0;fontFamily=阿里巴巴普惠体;" parent="1" vertex="1">
          <mxGeometry x="530" y="536" width="150" height="30" as="geometry" />
        </mxCell>
        <mxCell id="D3eR8ezOxUtHCJh72de2-1" value="&lt;span style=&quot;font-size: 18px;&quot;&gt;分析函数的属性&lt;/span&gt;" style="text;html=1;align=center;verticalAlign=middle;whiteSpace=wrap;rounded=0;" parent="1" vertex="1">
          <mxGeometry x="1095" y="542" width="150" height="30" as="geometry" />
        </mxCell>
        <mxCell id="D3eR8ezOxUtHCJh72de2-2" value="1" style="ellipse;whiteSpace=wrap;html=1;aspect=fixed;fillColor=none;" parent="1" vertex="1">
          <mxGeometry x="510" y="472" width="20" height="20" as="geometry" />
        </mxCell>
        <mxCell id="D3eR8ezOxUtHCJh72de2-4" value="&lt;font color=&quot;#ff0000&quot;&gt;&lt;b&gt;2&lt;/b&gt;&lt;/font&gt;" style="ellipse;whiteSpace=wrap;html=1;aspect=fixed;fillColor=none;strokeColor=#FF0000;" parent="1" vertex="1">
          <mxGeometry x="510" y="612" width="20" height="20" as="geometry" />
        </mxCell>
        <mxCell id="OBuy3P2LSfGlRLLi7H9O-1" value="" style="endArrow=classic;html=1;rounded=0;strokeColor=#FF0000;dashed=1;strokeWidth=2;" parent="1" edge="1">
          <mxGeometry width="50" height="50" relative="1" as="geometry">
            <mxPoint x="680" y="487" as="sourcePoint" />
            <mxPoint x="680" y="590" as="targetPoint" />
          </mxGeometry>
        </mxCell>
        <mxCell id="qhg3tYRADk5aRe0KpV4v-5" value="" style="edgeStyle=orthogonalEdgeStyle;rounded=0;orthogonalLoop=1;jettySize=auto;html=1;" parent="1" source="qhg3tYRADk5aRe0KpV4v-1" target="qhg3tYRADk5aRe0KpV4v-4" edge="1">
          <mxGeometry relative="1" as="geometry" />
        </mxCell>
        <mxCell id="qhg3tYRADk5aRe0KpV4v-1" value="&lt;div class=&quot;lake-content&quot;&gt;&lt;div class=&quot;lake-content&quot;&gt;&lt;div class=&quot;lake-content&quot;&gt;&lt;span class=&quot;ne-text&quot;&gt;&lt;font style=&quot;&quot;&gt;&lt;font style=&quot;font-size: 16px;&quot;&gt;Database.java&lt;/font&gt;&lt;b style=&quot;font-size: 20px;&quot;&gt;&lt;br&gt;&lt;/b&gt;&lt;/font&gt;&lt;/span&gt;&lt;/div&gt;&lt;div class=&quot;lake-content&quot;&gt;&lt;span class=&quot;ne-text&quot;&gt;&lt;font style=&quot;font-size: 20px;&quot;&gt;&lt;b&gt;addFunction&lt;/b&gt;&lt;/font&gt;&lt;/span&gt;&lt;/div&gt;&lt;/div&gt;&lt;/div&gt;" style="rounded=1;whiteSpace=wrap;html=1;fillColor=none;" parent="1" vertex="1">
          <mxGeometry x="1080" y="770" width="150" height="50" as="geometry" />
        </mxCell>
        <mxCell id="qhg3tYRADk5aRe0KpV4v-4" value="&lt;div class=&quot;lake-content&quot;&gt;&lt;div class=&quot;lake-content&quot;&gt;&lt;div class=&quot;lake-content&quot;&gt;&lt;div class=&quot;lake-content&quot;&gt;&lt;span class=&quot;ne-text&quot;&gt;&lt;div class=&quot;lake-content&quot;&gt;&lt;span class=&quot;ne-text&quot;&gt;&lt;font style=&quot;font-size: 16px;&quot;&gt;FunctionUtil.java&lt;/font&gt;&lt;/span&gt;&lt;/div&gt;&lt;/span&gt;&lt;/div&gt;&lt;div class=&quot;lake-content&quot;&gt;&lt;span class=&quot;ne-text&quot;&gt;&lt;b&gt;&lt;font color=&quot;#ff0000&quot; style=&quot;font-size: 20px;&quot;&gt;translateToNereids&lt;/font&gt;&lt;/b&gt;&lt;/span&gt;&lt;/div&gt;&lt;/div&gt;&lt;/div&gt;&lt;/div&gt;" style="rounded=1;whiteSpace=wrap;html=1;fillColor=none;" parent="1" vertex="1">
          <mxGeometry x="1290" y="765" width="190" height="60" as="geometry" />
        </mxCell>
      </root>
    </mxGraphModel>
  </diagram>
  <diagram name="ds-create-py-udf" id="gwCQFt_gBQlSAv_zR8T_">
    <mxGraphModel dx="1434" dy="836" grid="1" gridSize="10" guides="1" tooltips="1" connect="1" arrows="1" fold="1" page="1" pageScale="1" pageWidth="827" pageHeight="1169" math="0" shadow="0">
      <root>
        <mxCell id="TcTXzHBNAVdxCjM8VhUe-0" />
        <mxCell id="TcTXzHBNAVdxCjM8VhUe-1" parent="TcTXzHBNAVdxCjM8VhUe-0" />
        <mxCell id="TcTXzHBNAVdxCjM8VhUe-2" value="&lt;p style=&quot;line-height: 120%;&quot;&gt;&lt;font style=&quot;&quot;&gt;&lt;font style=&quot;font-size: 16px;&quot;&gt;ConnectProcessor.java&lt;/font&gt;&lt;br&gt;&lt;b style=&quot;font-size: 20px;&quot;&gt;executeQuery&lt;/b&gt;&lt;/font&gt;&lt;/p&gt;" style="rounded=1;whiteSpace=wrap;html=1;fillColor=none;arcSize=20;" parent="TcTXzHBNAVdxCjM8VhUe-1" vertex="1">
          <mxGeometry x="20" y="462" width="190" height="70" as="geometry" />
        </mxCell>
        <mxCell id="TcTXzHBNAVdxCjM8VhUe-3" value="&lt;div class=&quot;lake-content&quot;&gt;&lt;span class=&quot;ne-text&quot;&gt;&lt;font style=&quot;font-size: 16px;&quot;&gt;NereidsParser.java&lt;/font&gt;&lt;/span&gt;&lt;/div&gt;&lt;div class=&quot;lake-content&quot;&gt;&lt;span class=&quot;ne-text&quot;&gt;&lt;font style=&quot;font-size: 20px;&quot;&gt;&lt;b&gt;parseSQL&lt;/b&gt;&lt;/font&gt;&lt;/span&gt;&lt;/div&gt;" style="rounded=1;whiteSpace=wrap;html=1;fillColor=none;" parent="TcTXzHBNAVdxCjM8VhUe-1" vertex="1">
          <mxGeometry x="300" y="333" width="190" height="60" as="geometry" />
        </mxCell>
        <mxCell id="TcTXzHBNAVdxCjM8VhUe-4" value="&lt;div class=&quot;lake-content&quot;&gt;&lt;span class=&quot;ne-text&quot;&gt;&lt;font size=&quot;1&quot; style=&quot;&quot;&gt;&lt;div style=&quot;&quot; class=&quot;lake-content&quot;&gt;&lt;span style=&quot;font-size: 16px;&quot; class=&quot;ne-text&quot;&gt;StmtExecutor.java&lt;/span&gt;&lt;/div&gt;&lt;/font&gt;&lt;/span&gt;&lt;/div&gt;&lt;div class=&quot;lake-content&quot;&gt;&lt;b style=&quot;font-size: 20px;&quot;&gt;executor.execute()&lt;/b&gt;&lt;br&gt;&lt;/div&gt;" style="rounded=1;whiteSpace=wrap;html=1;fillColor=none;" parent="TcTXzHBNAVdxCjM8VhUe-1" vertex="1">
          <mxGeometry x="290" y="570" width="190" height="60" as="geometry" />
        </mxCell>
        <mxCell id="TcTXzHBNAVdxCjM8VhUe-5" value="" style="curved=1;endArrow=classic;html=1;rounded=0;exitX=1;exitY=0.25;exitDx=0;exitDy=0;" parent="TcTXzHBNAVdxCjM8VhUe-1" source="TcTXzHBNAVdxCjM8VhUe-2" target="TcTXzHBNAVdxCjM8VhUe-3" edge="1">
          <mxGeometry width="50" height="50" relative="1" as="geometry">
            <mxPoint x="220" y="449.5" as="sourcePoint" />
            <mxPoint x="300" y="360" as="targetPoint" />
            <Array as="points">
              <mxPoint x="230" y="400" />
              <mxPoint x="250" y="370" />
              <mxPoint x="280" y="362" />
            </Array>
          </mxGeometry>
        </mxCell>
        <mxCell id="TcTXzHBNAVdxCjM8VhUe-6" value="" style="curved=1;endArrow=classic;html=1;rounded=0;entryX=0;entryY=0.5;entryDx=0;entryDy=0;" parent="TcTXzHBNAVdxCjM8VhUe-1" target="TcTXzHBNAVdxCjM8VhUe-4" edge="1">
          <mxGeometry width="50" height="50" relative="1" as="geometry">
            <mxPoint x="210" y="520" as="sourcePoint" />
            <mxPoint x="280" y="520" as="targetPoint" />
            <Array as="points">
              <mxPoint x="210" y="550" />
              <mxPoint x="240" y="580" />
              <mxPoint x="280" y="600" />
            </Array>
          </mxGeometry>
        </mxCell>
        <mxCell id="TcTXzHBNAVdxCjM8VhUe-7" value="&lt;font style=&quot;font-size: 14px;&quot;&gt;Nereids 解析输入的 SQL 语句&lt;/font&gt;" style="text;html=1;align=left;verticalAlign=middle;whiteSpace=wrap;rounded=0;fontFamily=阿里巴巴普惠体;" parent="TcTXzHBNAVdxCjM8VhUe-1" vertex="1">
          <mxGeometry x="300" y="303" width="192.5" height="30" as="geometry" />
        </mxCell>
        <mxCell id="TcTXzHBNAVdxCjM8VhUe-9" value="&lt;div class=&quot;lake-content&quot;&gt;&lt;div class=&quot;lake-content&quot;&gt;&lt;span style=&quot;font-size: 20px; background-color: initial;&quot;&gt;executeByNereids&lt;/span&gt;&lt;/div&gt;&lt;/div&gt;" style="rounded=1;whiteSpace=wrap;html=1;fillColor=none;fontStyle=1" parent="TcTXzHBNAVdxCjM8VhUe-1" vertex="1">
          <mxGeometry x="560" y="455" width="180" height="50" as="geometry" />
        </mxCell>
        <mxCell id="5s5U2wT40Rqlq0LYMWD4-18" style="edgeStyle=orthogonalEdgeStyle;rounded=0;orthogonalLoop=1;jettySize=auto;html=1;entryX=0;entryY=0.5;entryDx=0;entryDy=0;" parent="TcTXzHBNAVdxCjM8VhUe-1" source="TcTXzHBNAVdxCjM8VhUe-11" target="TcTXzHBNAVdxCjM8VhUe-25" edge="1">
          <mxGeometry relative="1" as="geometry">
            <Array as="points">
              <mxPoint x="770" y="705" />
              <mxPoint x="770" y="705" />
            </Array>
          </mxGeometry>
        </mxCell>
        <mxCell id="TcTXzHBNAVdxCjM8VhUe-11" value="&lt;div class=&quot;lake-content&quot;&gt;&lt;div class=&quot;lake-content&quot;&gt;&lt;span style=&quot;font-size: 20px; background-color: initial;&quot;&gt;executeByLegacy&lt;/span&gt;&lt;br&gt;&lt;/div&gt;&lt;/div&gt;" style="rounded=1;whiteSpace=wrap;html=1;fillColor=none;fontStyle=1" parent="TcTXzHBNAVdxCjM8VhUe-1" vertex="1">
          <mxGeometry x="570" y="640" width="180" height="70" as="geometry" />
        </mxCell>
        <mxCell id="TcTXzHBNAVdxCjM8VhUe-12" value="" style="curved=1;endArrow=classic;html=1;rounded=0;exitX=1;exitY=0.5;exitDx=0;exitDy=0;" parent="TcTXzHBNAVdxCjM8VhUe-1" source="TcTXzHBNAVdxCjM8VhUe-4" edge="1">
          <mxGeometry width="50" height="50" relative="1" as="geometry">
            <mxPoint x="490" y="610" as="sourcePoint" />
            <mxPoint x="570" y="670" as="targetPoint" />
            <Array as="points">
              <mxPoint x="500" y="640" />
              <mxPoint x="530" y="660" />
              <mxPoint x="560" y="670" />
            </Array>
          </mxGeometry>
        </mxCell>
        <mxCell id="TcTXzHBNAVdxCjM8VhUe-13" value="" style="curved=1;endArrow=classic;html=1;rounded=0;exitX=1;exitY=0.25;exitDx=0;exitDy=0;entryX=0;entryY=0.5;entryDx=0;entryDy=0;" parent="TcTXzHBNAVdxCjM8VhUe-1" source="TcTXzHBNAVdxCjM8VhUe-4" target="TcTXzHBNAVdxCjM8VhUe-9" edge="1">
          <mxGeometry width="50" height="50" relative="1" as="geometry">
            <mxPoint x="490" y="610" as="sourcePoint" />
            <mxPoint x="590" y="515.8499999999999" as="targetPoint" />
            <Array as="points">
              <mxPoint x="500" y="520" />
              <mxPoint x="530" y="485" />
            </Array>
          </mxGeometry>
        </mxCell>
        <mxCell id="TcTXzHBNAVdxCjM8VhUe-14" value="&lt;font style=&quot;font-size: 24px;&quot;&gt;create function&amp;nbsp;&lt;/font&gt;&lt;div style=&quot;font-size: 24px;&quot;&gt;&lt;font style=&quot;font-size: 24px;&quot;&gt;代码流程图&lt;/font&gt;&lt;/div&gt;" style="rounded=1;whiteSpace=wrap;html=1;fillColor=#f8cecc;strokeColor=#b85450;fontFamily=Helvetica;fontSize=24;" parent="TcTXzHBNAVdxCjM8VhUe-1" vertex="1">
          <mxGeometry y="192" width="190" height="60" as="geometry" />
        </mxCell>
        <mxCell id="TcTXzHBNAVdxCjM8VhUe-15" value="&lt;font style=&quot;font-size: 20px;&quot;&gt;((Command) &lt;font style=&quot;background-color: rgb(255, 255, 0);&quot; color=&quot;#ff0000&quot;&gt;logicalPlan&lt;/font&gt;).run(context, this)&lt;/font&gt;" style="rounded=1;whiteSpace=wrap;html=1;fillColor=none;align=left;" parent="TcTXzHBNAVdxCjM8VhUe-1" vertex="1">
          <mxGeometry x="800" y="450" width="380" height="50" as="geometry" />
        </mxCell>
        <mxCell id="TcTXzHBNAVdxCjM8VhUe-16" value="&lt;span style=&quot;font-size: 18px;&quot;&gt;运行逻辑计划 logicalPlan&lt;/span&gt;" style="text;html=1;align=left;verticalAlign=middle;whiteSpace=wrap;rounded=0;fontFamily=阿里巴巴普惠体;" parent="TcTXzHBNAVdxCjM8VhUe-1" vertex="1">
          <mxGeometry x="890" y="420" width="210" height="30" as="geometry" />
        </mxCell>
        <mxCell id="TcTXzHBNAVdxCjM8VhUe-17" value="" style="curved=1;endArrow=classic;html=1;rounded=0;exitX=1;exitY=0.25;exitDx=0;exitDy=0;entryX=0;entryY=0.5;entryDx=0;entryDy=0;" parent="TcTXzHBNAVdxCjM8VhUe-1" source="TcTXzHBNAVdxCjM8VhUe-11" target="TcTXzHBNAVdxCjM8VhUe-18" edge="1">
          <mxGeometry width="50" height="50" relative="1" as="geometry">
            <mxPoint x="740" y="632.5" as="sourcePoint" />
            <mxPoint x="850" y="545" as="targetPoint" />
            <Array as="points">
              <mxPoint x="760" y="595" />
              <mxPoint x="800" y="585" />
            </Array>
          </mxGeometry>
        </mxCell>
        <mxCell id="TcTXzHBNAVdxCjM8VhUe-18" value="&lt;div class=&quot;lake-content&quot;&gt;&lt;div class=&quot;lake-content&quot;&gt;&lt;span class=&quot;ne-text&quot;&gt;&lt;font style=&quot;font-size: 20px;&quot;&gt;parseByLegacy&lt;/font&gt;&lt;/span&gt;&lt;/div&gt;&lt;/div&gt;" style="rounded=1;whiteSpace=wrap;html=1;fillColor=none;fontStyle=1" parent="TcTXzHBNAVdxCjM8VhUe-1" vertex="1">
          <mxGeometry x="845" y="559" width="155" height="50" as="geometry" />
        </mxCell>
        <mxCell id="TcTXzHBNAVdxCjM8VhUe-19" value="" style="curved=1;endArrow=classic;html=1;rounded=0;entryX=0;entryY=0.5;entryDx=0;entryDy=0;exitX=0.994;exitY=0.9;exitDx=0;exitDy=0;exitPerimeter=0;" parent="TcTXzHBNAVdxCjM8VhUe-1" source="TcTXzHBNAVdxCjM8VhUe-11" target="TcTXzHBNAVdxCjM8VhUe-21" edge="1">
          <mxGeometry width="50" height="50" relative="1" as="geometry">
            <mxPoint x="750" y="710" as="sourcePoint" />
            <mxPoint x="860" y="740" as="targetPoint" />
            <Array as="points">
              <mxPoint x="770" y="770" />
              <mxPoint x="800" y="800" />
            </Array>
          </mxGeometry>
        </mxCell>
        <mxCell id="TcTXzHBNAVdxCjM8VhUe-20" value="" style="edgeStyle=orthogonalEdgeStyle;rounded=0;orthogonalLoop=1;jettySize=auto;html=1;" parent="TcTXzHBNAVdxCjM8VhUe-1" source="TcTXzHBNAVdxCjM8VhUe-21" target="TcTXzHBNAVdxCjM8VhUe-29" edge="1">
          <mxGeometry relative="1" as="geometry" />
        </mxCell>
        <mxCell id="TcTXzHBNAVdxCjM8VhUe-21" value="&lt;div class=&quot;lake-content&quot;&gt;&lt;div class=&quot;lake-content&quot;&gt;&lt;span class=&quot;ne-text&quot;&gt;&lt;font style=&quot;font-size: 20px;&quot;&gt;handleDdlStmt&lt;/font&gt;&lt;/span&gt;&lt;/div&gt;&lt;/div&gt;" style="rounded=1;whiteSpace=wrap;html=1;fillColor=none;fontStyle=1" parent="TcTXzHBNAVdxCjM8VhUe-1" vertex="1">
          <mxGeometry x="860" y="780" width="150" height="50" as="geometry" />
        </mxCell>
        <mxCell id="TcTXzHBNAVdxCjM8VhUe-22" value="&lt;font style=&quot;font-size: 18px;&quot;&gt;解析语句&lt;/font&gt;" style="text;html=1;align=center;verticalAlign=middle;whiteSpace=wrap;rounded=0;" parent="TcTXzHBNAVdxCjM8VhUe-1" vertex="1">
          <mxGeometry x="724" y="559" width="90" height="30" as="geometry" />
        </mxCell>
        <mxCell id="TcTXzHBNAVdxCjM8VhUe-23" value="&lt;font style=&quot;font-size: 18px;&quot;&gt;分析语句&lt;/font&gt;" style="text;html=1;align=center;verticalAlign=middle;whiteSpace=wrap;rounded=0;" parent="TcTXzHBNAVdxCjM8VhUe-1" vertex="1">
          <mxGeometry x="755" y="680" width="90" height="14" as="geometry" />
        </mxCell>
        <mxCell id="TcTXzHBNAVdxCjM8VhUe-24" value="&lt;font style=&quot;font-size: 18px;&quot;&gt;执行语句&lt;/font&gt;" style="text;html=1;align=center;verticalAlign=middle;whiteSpace=wrap;rounded=0;" parent="TcTXzHBNAVdxCjM8VhUe-1" vertex="1">
          <mxGeometry x="776" y="758" width="90" height="30" as="geometry" />
        </mxCell>
        <mxCell id="TcTXzHBNAVdxCjM8VhUe-25" value="&lt;div class=&quot;lake-content&quot; style=&quot;font-size: 20px;&quot;&gt;&lt;div class=&quot;lake-content&quot; style=&quot;font-size: 20px;&quot;&gt;&lt;div class=&quot;lake-content&quot; style=&quot;line-height: 100%; font-size: 20px;&quot;&gt;&lt;h5 id=&quot;VZi8U&quot; data-lake-index-type=&quot;2&quot; style=&quot;line-height: 100%; margin: 8px 0px 5px; font-size: 20px;&quot;&gt;&lt;span style=&quot;font-size: 20px;&quot;&gt;&lt;font style=&quot;font-size: 20px;&quot;&gt;analyze&lt;/font&gt;&lt;/span&gt;&lt;/h5&gt;&lt;/div&gt;&lt;/div&gt;&lt;/div&gt;" style="rounded=1;whiteSpace=wrap;html=1;fillColor=none;fontSize=20;fontStyle=1" parent="TcTXzHBNAVdxCjM8VhUe-1" vertex="1">
          <mxGeometry x="855" y="680" width="145" height="50" as="geometry" />
        </mxCell>
        <mxCell id="TcTXzHBNAVdxCjM8VhUe-26" value="&lt;div style=&quot;&quot; class=&quot;lake-content&quot;&gt;&lt;div style=&quot;&quot; class=&quot;lake-content&quot;&gt;&lt;div style=&quot;line-height: 100%;&quot; class=&quot;lake-content&quot;&gt;&lt;h5 style=&quot;line-height: 100%; margin: 8px 0px 5px;&quot; data-lake-index-type=&quot;2&quot; id=&quot;VZi8U&quot;&gt;&lt;div style=&quot;&quot; class=&quot;lake-content&quot;&gt;&lt;span style=&quot;font-weight: normal;&quot; class=&quot;ne-text&quot;&gt;&lt;font style=&quot;font-size: 16px;&quot;&gt;CreateFunctionStmt.java&lt;/font&gt;&lt;/span&gt;&lt;/div&gt;&lt;div style=&quot;font-size: 20px;&quot; class=&quot;lake-content&quot;&gt;&lt;span style=&quot;background-color: initial;&quot;&gt;analyze&lt;/span&gt;&lt;/div&gt;&lt;/h5&gt;&lt;/div&gt;&lt;/div&gt;&lt;/div&gt;" style="rounded=1;whiteSpace=wrap;html=1;fillColor=none;fontSize=20;" parent="TcTXzHBNAVdxCjM8VhUe-1" vertex="1">
          <mxGeometry x="1061" y="680" width="189" height="60" as="geometry" />
        </mxCell>
        <mxCell id="TcTXzHBNAVdxCjM8VhUe-27" value="" style="endArrow=classic;html=1;rounded=0;entryX=0;entryY=0.5;entryDx=0;entryDy=0;" parent="TcTXzHBNAVdxCjM8VhUe-1" target="TcTXzHBNAVdxCjM8VhUe-26" edge="1">
          <mxGeometry width="50" height="50" relative="1" as="geometry">
            <mxPoint x="1000" y="710" as="sourcePoint" />
            <mxPoint x="1070" y="712" as="targetPoint" />
          </mxGeometry>
        </mxCell>
        <mxCell id="TcTXzHBNAVdxCjM8VhUe-28" value="" style="edgeStyle=orthogonalEdgeStyle;rounded=0;orthogonalLoop=1;jettySize=auto;html=1;" parent="TcTXzHBNAVdxCjM8VhUe-1" source="TcTXzHBNAVdxCjM8VhUe-29" target="TcTXzHBNAVdxCjM8VhUe-37" edge="1">
          <mxGeometry relative="1" as="geometry" />
        </mxCell>
        <mxCell id="TcTXzHBNAVdxCjM8VhUe-29" value="&lt;div style=&quot;font-size: 16px;&quot; class=&quot;lake-content&quot;&gt;&lt;div class=&quot;lake-content&quot;&gt;&lt;span class=&quot;ne-text&quot;&gt;&lt;font style=&quot;font-size: 16px;&quot;&gt;Env.java&lt;/font&gt;&lt;/span&gt;&lt;/div&gt;&lt;div class=&quot;lake-content&quot;&gt;&lt;span class=&quot;ne-text&quot;&gt;&lt;font style=&quot;font-size: 20px;&quot;&gt;&lt;b&gt;createFunction&lt;/b&gt;&lt;/font&gt;&lt;/span&gt;&lt;/div&gt;&lt;/div&gt;" style="rounded=1;whiteSpace=wrap;html=1;fillColor=none;" parent="TcTXzHBNAVdxCjM8VhUe-1" vertex="1">
          <mxGeometry x="1080" y="780" width="150" height="50" as="geometry" />
        </mxCell>
        <mxCell id="TcTXzHBNAVdxCjM8VhUe-30" value="&lt;span style=&quot;font-size: 18px;&quot;&gt;在 DB 中&lt;/span&gt;&lt;span style=&quot;font-size: 18px; background-color: initial;&quot;&gt;注册函数&lt;/span&gt;" style="text;html=1;align=center;verticalAlign=middle;whiteSpace=wrap;rounded=0;" parent="TcTXzHBNAVdxCjM8VhUe-1" vertex="1">
          <mxGeometry x="1080" y="750" width="150" height="30" as="geometry" />
        </mxCell>
        <mxCell id="TcTXzHBNAVdxCjM8VhUe-31" value="&lt;span style=&quot;font-size: 18px;&quot;&gt;若 Nereids 不支持执行当前的逻辑计划，则回退到 legacy planner 处理。&lt;/span&gt;" style="text;html=1;align=left;verticalAlign=middle;whiteSpace=wrap;rounded=0;fontFamily=阿里巴巴普惠体;" parent="TcTXzHBNAVdxCjM8VhUe-1" vertex="1">
          <mxGeometry x="514" y="559" width="150" height="30" as="geometry" />
        </mxCell>
        <mxCell id="TcTXzHBNAVdxCjM8VhUe-32" value="&lt;span style=&quot;font-size: 18px;&quot;&gt;分析函数的属性&lt;/span&gt;" style="text;html=1;align=center;verticalAlign=middle;whiteSpace=wrap;rounded=0;" parent="TcTXzHBNAVdxCjM8VhUe-1" vertex="1">
          <mxGeometry x="1080" y="655" width="150" height="30" as="geometry" />
        </mxCell>
        <mxCell id="TcTXzHBNAVdxCjM8VhUe-33" value="1" style="ellipse;whiteSpace=wrap;html=1;aspect=fixed;fillColor=none;" parent="TcTXzHBNAVdxCjM8VhUe-1" vertex="1">
          <mxGeometry x="480" y="487" width="20" height="20" as="geometry" />
        </mxCell>
        <mxCell id="TcTXzHBNAVdxCjM8VhUe-34" value="&lt;font color=&quot;#ff0000&quot;&gt;&lt;b&gt;2&lt;/b&gt;&lt;/font&gt;" style="ellipse;whiteSpace=wrap;html=1;aspect=fixed;fillColor=none;strokeColor=#FF0000;" parent="TcTXzHBNAVdxCjM8VhUe-1" vertex="1">
          <mxGeometry x="510" y="660" width="20" height="20" as="geometry" />
        </mxCell>
        <mxCell id="TcTXzHBNAVdxCjM8VhUe-35" value="" style="endArrow=classic;html=1;rounded=0;strokeColor=#FF0000;dashed=1;strokeWidth=2;entryX=0.5;entryY=0;entryDx=0;entryDy=0;" parent="TcTXzHBNAVdxCjM8VhUe-1" edge="1">
          <mxGeometry width="50" height="50" relative="1" as="geometry">
            <mxPoint x="675" y="505" as="sourcePoint" />
            <mxPoint x="675" y="640" as="targetPoint" />
          </mxGeometry>
        </mxCell>
        <mxCell id="TcTXzHBNAVdxCjM8VhUe-36" value="" style="edgeStyle=orthogonalEdgeStyle;rounded=0;orthogonalLoop=1;jettySize=auto;html=1;" parent="TcTXzHBNAVdxCjM8VhUe-1" source="TcTXzHBNAVdxCjM8VhUe-37" target="TcTXzHBNAVdxCjM8VhUe-38" edge="1">
          <mxGeometry relative="1" as="geometry" />
        </mxCell>
        <mxCell id="TcTXzHBNAVdxCjM8VhUe-37" value="&lt;div class=&quot;lake-content&quot;&gt;&lt;div class=&quot;lake-content&quot;&gt;&lt;div class=&quot;lake-content&quot;&gt;&lt;span class=&quot;ne-text&quot;&gt;&lt;font style=&quot;&quot;&gt;&lt;font style=&quot;font-size: 16px;&quot;&gt;Database.java&lt;/font&gt;&lt;b style=&quot;font-size: 20px;&quot;&gt;&lt;br&gt;&lt;/b&gt;&lt;/font&gt;&lt;/span&gt;&lt;/div&gt;&lt;div class=&quot;lake-content&quot;&gt;&lt;span class=&quot;ne-text&quot;&gt;&lt;font style=&quot;font-size: 20px;&quot;&gt;&lt;b&gt;addFunction&lt;/b&gt;&lt;/font&gt;&lt;/span&gt;&lt;/div&gt;&lt;/div&gt;&lt;/div&gt;" style="rounded=1;whiteSpace=wrap;html=1;fillColor=none;" parent="TcTXzHBNAVdxCjM8VhUe-1" vertex="1">
          <mxGeometry x="1080" y="865" width="150" height="50" as="geometry" />
        </mxCell>
        <mxCell id="TcTXzHBNAVdxCjM8VhUe-38" value="&lt;div class=&quot;lake-content&quot;&gt;&lt;div class=&quot;lake-content&quot;&gt;&lt;div class=&quot;lake-content&quot;&gt;&lt;div class=&quot;lake-content&quot;&gt;&lt;span class=&quot;ne-text&quot;&gt;&lt;div class=&quot;lake-content&quot;&gt;&lt;span class=&quot;ne-text&quot;&gt;&lt;font style=&quot;font-size: 16px;&quot;&gt;FunctionUtil.java&lt;/font&gt;&lt;/span&gt;&lt;/div&gt;&lt;/span&gt;&lt;/div&gt;&lt;div class=&quot;lake-content&quot;&gt;&lt;span class=&quot;ne-text&quot;&gt;&lt;b&gt;&lt;font color=&quot;#ff0000&quot; style=&quot;font-size: 20px;&quot;&gt;translateToNereids&lt;/font&gt;&lt;/b&gt;&lt;/span&gt;&lt;/div&gt;&lt;/div&gt;&lt;/div&gt;&lt;/div&gt;" style="rounded=1;whiteSpace=wrap;html=1;fillColor=none;" parent="TcTXzHBNAVdxCjM8VhUe-1" vertex="1">
          <mxGeometry x="1261" y="860" width="190" height="60" as="geometry" />
        </mxCell>
        <mxCell id="dPwSV4Kca0CsYdmX3rfj-0" value="新增" style="rounded=0;whiteSpace=wrap;html=1;fillColor=#cce5ff;strokeColor=#36393d;" parent="TcTXzHBNAVdxCjM8VhUe-1" vertex="1">
          <mxGeometry x="1140" y="212" width="40" height="20" as="geometry" />
        </mxCell>
        <mxCell id="eI-M_4yKzpiyoIQ53MVv-0" value="" style="edgeStyle=elbowEdgeStyle;elbow=horizontal;html=1;rounded=1;curved=0;sourcePerimeterSpacing=0;targetPerimeterSpacing=0;startSize=6;endSize=6;strokeColor=#000000;" parent="TcTXzHBNAVdxCjM8VhUe-1" target="eI-M_4yKzpiyoIQ53MVv-6" edge="1">
          <mxGeometry relative="1" as="geometry">
            <mxPoint x="490" y="363" as="sourcePoint" />
            <mxPoint x="540" y="403" as="targetPoint" />
          </mxGeometry>
        </mxCell>
        <mxCell id="eI-M_4yKzpiyoIQ53MVv-1" value="" style="edgeStyle=elbowEdgeStyle;elbow=horizontal;html=1;rounded=1;curved=0;sourcePerimeterSpacing=0;targetPerimeterSpacing=0;startSize=6;endSize=6;strokeColor=#000000;shadow=0;entryX=0;entryY=0.5;entryDx=0;entryDy=0;" parent="TcTXzHBNAVdxCjM8VhUe-1" target="eI-M_4yKzpiyoIQ53MVv-5" edge="1">
          <mxGeometry relative="1" as="geometry">
            <mxPoint x="490" y="363" as="sourcePoint" />
            <mxPoint x="540" y="323" as="targetPoint" />
          </mxGeometry>
        </mxCell>
        <mxCell id="eI-M_4yKzpiyoIQ53MVv-5" value="&lt;font style=&quot;font-size: 20px;&quot;&gt;DorisLexer.g4&lt;/font&gt;" style="rounded=1;whiteSpace=wrap;html=1;fillColor=#ffcc99;fontStyle=1;strokeColor=#36393d;" parent="TcTXzHBNAVdxCjM8VhUe-1" vertex="1">
          <mxGeometry x="540" y="293" width="140" height="50" as="geometry" />
        </mxCell>
        <mxCell id="eI-M_4yKzpiyoIQ53MVv-6" value="DorisParser.g4" style="rounded=1;whiteSpace=wrap;html=1;fillColor=#ffcc99;fontSize=20;fontStyle=1;strokeColor=#36393d;" parent="TcTXzHBNAVdxCjM8VhUe-1" vertex="1">
          <mxGeometry x="540" y="370" width="150" height="50" as="geometry" />
        </mxCell>
        <mxCell id="eI-M_4yKzpiyoIQ53MVv-7" style="edgeStyle=orthogonalEdgeStyle;rounded=0;orthogonalLoop=1;jettySize=auto;html=1;entryX=0;entryY=0.6;entryDx=0;entryDy=0;entryPerimeter=0;" parent="TcTXzHBNAVdxCjM8VhUe-1" source="TcTXzHBNAVdxCjM8VhUe-9" target="TcTXzHBNAVdxCjM8VhUe-15" edge="1">
          <mxGeometry relative="1" as="geometry">
            <mxPoint x="820" y="485" as="targetPoint" />
          </mxGeometry>
        </mxCell>
        <mxCell id="eI-M_4yKzpiyoIQ53MVv-8" value="修改" style="rounded=0;whiteSpace=wrap;html=1;fillColor=#ffcc99;strokeColor=#36393d;" parent="TcTXzHBNAVdxCjM8VhUe-1" vertex="1">
          <mxGeometry x="1140" y="232" width="40" height="20" as="geometry" />
        </mxCell>
        <mxCell id="5s5U2wT40Rqlq0LYMWD4-0" value="&lt;font color=&quot;#ff0000&quot; style=&quot;font-size: 20px; background-color: rgb(255, 255, 0);&quot;&gt;增加 $$ 符号&lt;/font&gt;" style="text;html=1;align=left;verticalAlign=middle;whiteSpace=wrap;rounded=0;" parent="TcTXzHBNAVdxCjM8VhUe-1" vertex="1">
          <mxGeometry x="690" y="303" width="122" height="30" as="geometry" />
        </mxCell>
        <mxCell id="5s5U2wT40Rqlq0LYMWD4-1" value="&lt;font color=&quot;#ff0000&quot; style=&quot;font-size: 20px; background-color: rgb(255, 255, 0);&quot;&gt;CreateFunctionStmt&lt;/font&gt;" style="text;html=1;align=left;verticalAlign=middle;whiteSpace=wrap;rounded=0;" parent="TcTXzHBNAVdxCjM8VhUe-1" vertex="1">
          <mxGeometry x="698" y="380" width="142" height="30" as="geometry" />
        </mxCell>
        <mxCell id="5s5U2wT40Rqlq0LYMWD4-8" value="" style="edgeStyle=elbowEdgeStyle;elbow=horizontal;html=1;rounded=1;curved=0;sourcePerimeterSpacing=0;targetPerimeterSpacing=0;startSize=6;endSize=6;strokeColor=#000000;entryX=0;entryY=0.5;entryDx=0;entryDy=0;exitX=1;exitY=0.5;exitDx=0;exitDy=0;" parent="TcTXzHBNAVdxCjM8VhUe-1" source="TcTXzHBNAVdxCjM8VhUe-18" target="5s5U2wT40Rqlq0LYMWD4-15" edge="1">
          <mxGeometry relative="1" as="geometry">
            <mxPoint x="1010" y="580" as="sourcePoint" />
            <mxPoint x="1065" y="641" as="targetPoint" />
            <Array as="points">
              <mxPoint x="1030" y="630" />
            </Array>
          </mxGeometry>
        </mxCell>
        <mxCell id="5s5U2wT40Rqlq0LYMWD4-9" value="" style="edgeStyle=elbowEdgeStyle;elbow=horizontal;html=1;rounded=1;curved=0;sourcePerimeterSpacing=0;targetPerimeterSpacing=0;startSize=6;endSize=6;strokeColor=#000000;shadow=0;entryX=0;entryY=0.5;entryDx=0;entryDy=0;exitX=1;exitY=0.5;exitDx=0;exitDy=0;" parent="TcTXzHBNAVdxCjM8VhUe-1" source="TcTXzHBNAVdxCjM8VhUe-18" target="5s5U2wT40Rqlq0LYMWD4-14" edge="1">
          <mxGeometry relative="1" as="geometry">
            <mxPoint x="1015" y="609" as="sourcePoint" />
            <mxPoint x="1065" y="564" as="targetPoint" />
            <Array as="points">
              <mxPoint x="1030" y="590" />
            </Array>
          </mxGeometry>
        </mxCell>
        <mxCell id="5s5U2wT40Rqlq0LYMWD4-14" value="&lt;p class=&quot;MsoNormal&quot;&gt;&lt;font style=&quot;font-size: 20px;&quot;&gt;sql_scanner.flex&lt;/font&gt;&lt;/p&gt;" style="rounded=1;whiteSpace=wrap;html=1;fillColor=#ffcc99;strokeColor=#36393d;align=center;verticalAlign=middle;fontFamily=Helvetica;fontSize=12;fontStyle=1;" parent="TcTXzHBNAVdxCjM8VhUe-1" vertex="1">
          <mxGeometry x="1061" y="532" width="169" height="44" as="geometry" />
        </mxCell>
        <mxCell id="5s5U2wT40Rqlq0LYMWD4-15" value="&lt;p class=&quot;MsoNormal&quot;&gt;&lt;font style=&quot;font-size: 20px;&quot;&gt;sql_parser.cup&lt;/font&gt;&lt;/p&gt;" style="rounded=1;whiteSpace=wrap;html=1;fillColor=#ffcc99;strokeColor=#36393d;align=center;verticalAlign=middle;fontFamily=Helvetica;fontSize=12;fontStyle=1;" parent="TcTXzHBNAVdxCjM8VhUe-1" vertex="1">
          <mxGeometry x="1061" y="596" width="169" height="44" as="geometry" />
        </mxCell>
      </root>
    </mxGraphModel>
  </diagram>
  <diagram id="Rj_WT1_6nODg31kZ-Hze" name="ds-analyze-java-udf">
    <mxGraphModel dx="607" dy="836" grid="1" gridSize="10" guides="1" tooltips="1" connect="1" arrows="1" fold="1" page="1" pageScale="1" pageWidth="827" pageHeight="1169" math="0" shadow="0">
      <root>
        <mxCell id="0" />
        <mxCell id="1" parent="0" />
        <mxCell id="CLV4le5of_cKdXgCzs-E-1" value="&lt;div style=&quot;font-size: 20px;&quot; class=&quot;lake-content&quot;&gt;&lt;div style=&quot;font-size: 20px;&quot; class=&quot;lake-content&quot;&gt;&lt;div style=&quot;line-height: 100%; font-size: 20px;&quot; class=&quot;lake-content&quot;&gt;&lt;h5 style=&quot;line-height: 100%; margin: 8px 0px 5px; font-size: 20px;&quot; data-lake-index-type=&quot;2&quot; id=&quot;VZi8U&quot;&gt;&lt;div class=&quot;lake-content&quot;&gt;&lt;span style=&quot;font-weight: normal;&quot; class=&quot;ne-text&quot;&gt;CreateFunctionStmt.java&lt;/span&gt;&lt;/div&gt;&lt;div class=&quot;lake-content&quot;&gt;&lt;span style=&quot;background-color: initial;&quot;&gt;analyze&lt;/span&gt;&lt;/div&gt;&lt;/h5&gt;&lt;/div&gt;&lt;/div&gt;&lt;/div&gt;" style="rounded=1;whiteSpace=wrap;html=1;fillColor=none;fontSize=20;" parent="1" vertex="1">
          <mxGeometry x="850" y="470" width="240" height="60" as="geometry" />
        </mxCell>
        <mxCell id="CLV4le5of_cKdXgCzs-E-2" value="&lt;div style=&quot;&quot; class=&quot;lake-content&quot;&gt;&lt;div style=&quot;&quot; class=&quot;lake-content&quot;&gt;&lt;div style=&quot;line-height: 100%;&quot; class=&quot;lake-content&quot;&gt;&lt;h5 style=&quot;line-height: 100%; margin: 8px 0px 5px;&quot; data-lake-index-type=&quot;2&quot; id=&quot;VZi8U&quot;&gt;&lt;div style=&quot;&quot; class=&quot;lake-content&quot;&gt;&lt;span style=&quot;font-weight: normal;&quot; class=&quot;ne-text&quot;&gt;&lt;font style=&quot;font-size: 20px;&quot;&gt;CreateFunctionStmt.java&lt;/font&gt;&lt;/span&gt;&lt;/div&gt;&lt;div style=&quot;&quot; class=&quot;lake-content&quot;&gt;&lt;font style=&quot;font-size: 20px;&quot;&gt;analyzeCommon&lt;/font&gt;&lt;br&gt;&lt;/div&gt;&lt;/h5&gt;&lt;/div&gt;&lt;/div&gt;&lt;/div&gt;" style="rounded=1;whiteSpace=wrap;html=1;fillColor=none;fontSize=20;" parent="1" vertex="1">
          <mxGeometry x="1250" y="360" width="240" height="60" as="geometry" />
        </mxCell>
        <mxCell id="CLV4le5of_cKdXgCzs-E-5" value="" style="curved=1;endArrow=classic;html=1;rounded=0;entryX=0;entryY=0.5;entryDx=0;entryDy=0;" parent="1" target="CLV4le5of_cKdXgCzs-E-2" edge="1">
          <mxGeometry width="50" height="50" relative="1" as="geometry">
            <mxPoint x="1090" y="490" as="sourcePoint" />
            <mxPoint x="1140" y="440" as="targetPoint" />
            <Array as="points">
              <mxPoint x="1090" y="440" />
              <mxPoint x="1170" y="390" />
            </Array>
          </mxGeometry>
        </mxCell>
        <mxCell id="CLV4le5of_cKdXgCzs-E-6" value="&lt;div style=&quot;&quot; class=&quot;lake-content&quot;&gt;&lt;div style=&quot;&quot; class=&quot;lake-content&quot;&gt;&lt;div style=&quot;line-height: 100%;&quot; class=&quot;lake-content&quot;&gt;&lt;h5 style=&quot;line-height: 100%; margin: 8px 0px 5px;&quot; data-lake-index-type=&quot;2&quot; id=&quot;VZi8U&quot;&gt;&lt;div style=&quot;font-size: 20px;&quot; class=&quot;lake-content&quot;&gt;&lt;span style=&quot;font-weight: normal;&quot; class=&quot;ne-text&quot;&gt;CreateFunctionStmt.java&lt;/span&gt;&lt;/div&gt;&lt;div style=&quot;&quot; class=&quot;lake-content&quot;&gt;&lt;span style=&quot;font-size: 20px;&quot;&gt;analyzeUdf&lt;/span&gt;&lt;br&gt;&lt;/div&gt;&lt;/h5&gt;&lt;/div&gt;&lt;/div&gt;&lt;/div&gt;" style="rounded=1;whiteSpace=wrap;html=1;fillColor=none;fontSize=20;" parent="1" vertex="1">
          <mxGeometry x="1250" y="555" width="240" height="60" as="geometry" />
        </mxCell>
        <mxCell id="CLV4le5of_cKdXgCzs-E-11" value="" style="curved=1;endArrow=classic;html=1;rounded=0;entryX=0;entryY=0.5;entryDx=0;entryDy=0;exitX=1;exitY=0.75;exitDx=0;exitDy=0;" parent="1" source="CLV4le5of_cKdXgCzs-E-1" target="CLV4le5of_cKdXgCzs-E-6" edge="1">
          <mxGeometry width="50" height="50" relative="1" as="geometry">
            <mxPoint x="1020" y="610" as="sourcePoint" />
            <mxPoint x="1070" y="560" as="targetPoint" />
            <Array as="points">
              <mxPoint x="1090" y="530" />
              <mxPoint x="1120" y="570" />
              <mxPoint x="1170" y="580" />
              <mxPoint x="1210" y="585" />
            </Array>
          </mxGeometry>
        </mxCell>
        <mxCell id="CLV4le5of_cKdXgCzs-E-12" value="&lt;font style=&quot;font-size: 18px;&quot;&gt;分析函数的通用属性&lt;/font&gt;" style="text;html=1;align=center;verticalAlign=middle;whiteSpace=wrap;rounded=0;" parent="1" vertex="1">
          <mxGeometry x="1100" y="430" width="180" height="30" as="geometry" />
        </mxCell>
        <mxCell id="CLV4le5of_cKdXgCzs-E-13" value="&lt;font style=&quot;font-size: 18px;&quot;&gt;创建函数对象实例&lt;/font&gt;" style="text;html=1;align=center;verticalAlign=middle;whiteSpace=wrap;rounded=0;" parent="1" vertex="1">
          <mxGeometry x="1092" y="525" width="180" height="30" as="geometry" />
        </mxCell>
        <mxCell id="xjF7cQH96uSyHwy7eL6_-1" value="函数分析的流程图" style="rounded=1;whiteSpace=wrap;html=1;fillColor=#f8cecc;strokeColor=#b85450;fontSize=24;" parent="1" vertex="1">
          <mxGeometry x="850" y="350" width="120" height="60" as="geometry" />
        </mxCell>
        <mxCell id="ec8Uz4-k2YrHyspErEO--8" value="" style="edgeStyle=elbowEdgeStyle;elbow=horizontal;html=1;rounded=1;curved=0;sourcePerimeterSpacing=0;targetPerimeterSpacing=0;startSize=6;endSize=6;strokeColor=#000000;" parent="1" edge="1">
          <mxGeometry relative="1" as="geometry">
            <mxPoint x="1490" y="390" as="sourcePoint" />
            <mxPoint x="1540" y="430" as="targetPoint" />
          </mxGeometry>
        </mxCell>
        <mxCell id="ec8Uz4-k2YrHyspErEO--9" value="" style="edgeStyle=elbowEdgeStyle;elbow=horizontal;html=1;rounded=1;curved=0;sourcePerimeterSpacing=0;targetPerimeterSpacing=0;startSize=6;endSize=6;strokeColor=#000000;shadow=0;" parent="1" edge="1">
          <mxGeometry relative="1" as="geometry">
            <mxPoint x="1490" y="390" as="sourcePoint" />
            <mxPoint x="1540" y="350" as="targetPoint" />
          </mxGeometry>
        </mxCell>
        <mxCell id="ec8Uz4-k2YrHyspErEO--10" value="&lt;font color=&quot;#ff0000&quot; style=&quot;font-size: 20px; background-color: rgb(255, 255, 0);&quot;&gt;判断支持的函数类型&lt;/font&gt;" style="text;html=1;align=left;verticalAlign=middle;whiteSpace=wrap;rounded=0;" parent="1" vertex="1">
          <mxGeometry x="1540" y="330" width="190" height="30" as="geometry" />
        </mxCell>
        <mxCell id="ec8Uz4-k2YrHyspErEO--11" value="&lt;font style=&quot;font-size: 20px; background-color: rgb(255, 255, 0);&quot; color=&quot;#ff0000&quot;&gt;计算引用文件的校验和&lt;/font&gt;" style="text;html=1;align=left;verticalAlign=middle;whiteSpace=wrap;rounded=0;" parent="1" vertex="1">
          <mxGeometry x="1538" y="414" width="210" height="30" as="geometry" />
        </mxCell>
        <mxCell id="ec8Uz4-k2YrHyspErEO--12" value="" style="edgeStyle=elbowEdgeStyle;elbow=horizontal;html=1;rounded=1;curved=0;sourcePerimeterSpacing=0;targetPerimeterSpacing=0;startSize=6;endSize=6;strokeColor=#000000;entryX=0;entryY=0.5;entryDx=0;entryDy=0;" parent="1" edge="1" target="cTx8JxhMLyoR1gHJXUPZ-2">
          <mxGeometry relative="1" as="geometry">
            <mxPoint x="1490" y="585" as="sourcePoint" />
            <mxPoint x="1540" y="625" as="targetPoint" />
            <Array as="points">
              <mxPoint x="1510" y="600" />
            </Array>
          </mxGeometry>
        </mxCell>
        <mxCell id="ec8Uz4-k2YrHyspErEO--13" value="" style="edgeStyle=elbowEdgeStyle;elbow=horizontal;html=1;rounded=1;curved=0;sourcePerimeterSpacing=0;targetPerimeterSpacing=0;startSize=6;endSize=6;strokeColor=#000000;shadow=0;entryX=0.013;entryY=0.367;entryDx=0;entryDy=0;entryPerimeter=0;" parent="1" target="QWA_nMUw93DGtYUWx3ue-3" edge="1">
          <mxGeometry relative="1" as="geometry">
            <mxPoint x="1490" y="585" as="sourcePoint" />
            <mxPoint x="1540" y="545" as="targetPoint" />
            <Array as="points">
              <mxPoint x="1510" y="560" />
            </Array>
          </mxGeometry>
        </mxCell>
        <mxCell id="ec8Uz4-k2YrHyspErEO--14" value="&lt;font color=&quot;#ff0000&quot;&gt;&lt;span style=&quot;font-size: 20px; background-color: rgb(255, 255, 0);&quot;&gt;校验 symbol 属性值&lt;/span&gt;&lt;/font&gt;&lt;span style=&quot;background-color: rgb(255, 255, 0); font-size: 20px; color: rgb(255, 0, 0);&quot;&gt;是否合法&lt;/span&gt;" style="text;html=1;align=left;verticalAlign=middle;whiteSpace=wrap;rounded=0;" parent="1" vertex="1">
          <mxGeometry x="1705" y="533" width="140" height="30" as="geometry" />
        </mxCell>
        <mxCell id="QWA_nMUw93DGtYUWx3ue-3" value="&lt;font style=&quot;font-size: 20px;&quot;&gt;&lt;b&gt;analyzeJavaUdf&lt;/b&gt;&lt;/font&gt;" style="rounded=1;whiteSpace=wrap;html=1;fillColor=none;" parent="1" vertex="1">
          <mxGeometry x="1540" y="518" width="160" height="60" as="geometry" />
        </mxCell>
        <mxCell id="cTx8JxhMLyoR1gHJXUPZ-2" value="&lt;span style=&quot;font-size: 20px; text-align: left;&quot;&gt;&lt;b&gt;ScalarFunction.createUdf&lt;/b&gt;&lt;/span&gt;" style="rounded=1;whiteSpace=wrap;html=1;fillColor=none;" vertex="1" parent="1">
          <mxGeometry x="1540" y="590" width="250" height="60" as="geometry" />
        </mxCell>
      </root>
    </mxGraphModel>
  </diagram>
  <diagram name="ds-analyze-python-udf" id="WRFQe9HAMLEwWnDZLQxy">
    <mxGraphModel dx="607" dy="836" grid="1" gridSize="10" guides="1" tooltips="1" connect="1" arrows="1" fold="1" page="1" pageScale="1" pageWidth="827" pageHeight="1169" math="0" shadow="0">
      <root>
        <mxCell id="0L0t79msyySQdzXoJwu8-0" />
        <mxCell id="0L0t79msyySQdzXoJwu8-1" parent="0L0t79msyySQdzXoJwu8-0" />
        <mxCell id="0L0t79msyySQdzXoJwu8-2" value="&lt;div style=&quot;font-size: 20px;&quot; class=&quot;lake-content&quot;&gt;&lt;div style=&quot;font-size: 20px;&quot; class=&quot;lake-content&quot;&gt;&lt;div style=&quot;line-height: 100%; font-size: 20px;&quot; class=&quot;lake-content&quot;&gt;&lt;h5 style=&quot;line-height: 100%; margin: 8px 0px 5px; font-size: 20px;&quot; data-lake-index-type=&quot;2&quot; id=&quot;VZi8U&quot;&gt;&lt;div class=&quot;lake-content&quot;&gt;&lt;span style=&quot;font-weight: normal;&quot; class=&quot;ne-text&quot;&gt;CreateFunctionStmt.java&lt;/span&gt;&lt;/div&gt;&lt;div class=&quot;lake-content&quot;&gt;&lt;span style=&quot;background-color: initial;&quot;&gt;analyze&lt;/span&gt;&lt;/div&gt;&lt;/h5&gt;&lt;/div&gt;&lt;/div&gt;&lt;/div&gt;" style="rounded=1;whiteSpace=wrap;html=1;fillColor=#ffcc99;fontSize=20;strokeColor=#36393d;" parent="0L0t79msyySQdzXoJwu8-1" vertex="1">
          <mxGeometry x="860" y="470" width="230" height="60" as="geometry" />
        </mxCell>
        <mxCell id="0L0t79msyySQdzXoJwu8-3" value="&lt;div style=&quot;line-height: 103%;&quot; class=&quot;lake-content&quot;&gt;&lt;div style=&quot;line-height: 103%;&quot; class=&quot;lake-content&quot;&gt;&lt;div style=&quot;line-height: 103%;&quot; class=&quot;lake-content&quot;&gt;&lt;h5 style=&quot;line-height: 103%; margin: 8px 0px 5px;&quot; data-lake-index-type=&quot;2&quot; id=&quot;VZi8U&quot;&gt;&lt;div style=&quot;line-height: 103%;&quot; class=&quot;lake-content&quot;&gt;&lt;span style=&quot;font-weight: normal;&quot; class=&quot;ne-text&quot;&gt;&lt;font style=&quot;font-size: 20px;&quot;&gt;CreateFunctionStmt.java&lt;/font&gt;&lt;/span&gt;&lt;/div&gt;&lt;div style=&quot;&quot; class=&quot;lake-content&quot;&gt;&lt;font style=&quot;font-size: 20px;&quot;&gt;analyzeCommon&lt;/font&gt;&lt;br&gt;&lt;/div&gt;&lt;/h5&gt;&lt;/div&gt;&lt;/div&gt;&lt;/div&gt;" style="rounded=1;whiteSpace=wrap;html=1;fillColor=none;fontSize=20;" parent="0L0t79msyySQdzXoJwu8-1" vertex="1">
          <mxGeometry x="1250" y="360" width="240" height="60" as="geometry" />
        </mxCell>
        <mxCell id="0L0t79msyySQdzXoJwu8-4" value="" style="curved=1;endArrow=classic;html=1;rounded=0;entryX=0;entryY=0.5;entryDx=0;entryDy=0;" parent="0L0t79msyySQdzXoJwu8-1" target="0L0t79msyySQdzXoJwu8-3" edge="1">
          <mxGeometry width="50" height="50" relative="1" as="geometry">
            <mxPoint x="1090" y="490" as="sourcePoint" />
            <mxPoint x="1140" y="440" as="targetPoint" />
            <Array as="points">
              <mxPoint x="1090" y="440" />
              <mxPoint x="1170" y="390" />
            </Array>
          </mxGeometry>
        </mxCell>
        <mxCell id="sVvkOi36QpSgGo5PRrt9-3" value="" style="edgeStyle=orthogonalEdgeStyle;rounded=1;orthogonalLoop=1;jettySize=auto;html=1;curved=0;" edge="1" parent="0L0t79msyySQdzXoJwu8-1" source="0L0t79msyySQdzXoJwu8-5" target="sVvkOi36QpSgGo5PRrt9-2">
          <mxGeometry relative="1" as="geometry" />
        </mxCell>
        <mxCell id="0L0t79msyySQdzXoJwu8-5" value="&lt;div style=&quot;line-height: 99%;&quot; class=&quot;lake-content&quot;&gt;&lt;div style=&quot;line-height: 99%;&quot; class=&quot;lake-content&quot;&gt;&lt;div style=&quot;line-height: 99%;&quot; class=&quot;lake-content&quot;&gt;&lt;h5 style=&quot;line-height: 99%; margin: 8px 0px 5px;&quot; data-lake-index-type=&quot;2&quot; id=&quot;VZi8U&quot;&gt;&lt;div style=&quot;font-size: 20px; line-height: 100%;&quot; class=&quot;lake-content&quot;&gt;&lt;span style=&quot;font-weight: normal;&quot; class=&quot;ne-text&quot;&gt;CreateFunctionStmt.java&lt;/span&gt;&lt;/div&gt;&lt;div style=&quot;line-height: 99%;&quot; class=&quot;lake-content&quot;&gt;&lt;span style=&quot;font-size: 20px;&quot;&gt;analyzePython&lt;/span&gt;&lt;br&gt;&lt;/div&gt;&lt;/h5&gt;&lt;/div&gt;&lt;/div&gt;&lt;/div&gt;" style="rounded=1;whiteSpace=wrap;html=1;fillColor=#cce5ff;fontSize=20;strokeColor=#36393d;glass=0;align=center;verticalAlign=middle;fontFamily=Helvetica;fontColor=default;" parent="0L0t79msyySQdzXoJwu8-1" vertex="1">
          <mxGeometry x="1250" y="555" width="240" height="60" as="geometry" />
        </mxCell>
        <mxCell id="0L0t79msyySQdzXoJwu8-6" value="" style="curved=1;endArrow=classic;html=1;rounded=0;entryX=0;entryY=0.5;entryDx=0;entryDy=0;exitX=1;exitY=0.75;exitDx=0;exitDy=0;" parent="0L0t79msyySQdzXoJwu8-1" source="0L0t79msyySQdzXoJwu8-2" target="0L0t79msyySQdzXoJwu8-5" edge="1">
          <mxGeometry width="50" height="50" relative="1" as="geometry">
            <mxPoint x="1020" y="610" as="sourcePoint" />
            <mxPoint x="1070" y="560" as="targetPoint" />
            <Array as="points">
              <mxPoint x="1090" y="530" />
              <mxPoint x="1120" y="570" />
              <mxPoint x="1170" y="585" />
              <mxPoint x="1210" y="585" />
            </Array>
          </mxGeometry>
        </mxCell>
        <mxCell id="0L0t79msyySQdzXoJwu8-7" value="&lt;font style=&quot;font-size: 18px;&quot;&gt;分析函数的通用属性&lt;/font&gt;" style="text;html=1;align=center;verticalAlign=middle;whiteSpace=wrap;rounded=0;" parent="0L0t79msyySQdzXoJwu8-1" vertex="1">
          <mxGeometry x="1100" y="430" width="180" height="30" as="geometry" />
        </mxCell>
        <mxCell id="0L0t79msyySQdzXoJwu8-8" value="&lt;font style=&quot;font-size: 18px;&quot;&gt;创建函数对象实例&lt;/font&gt;" style="text;html=1;align=center;verticalAlign=middle;whiteSpace=wrap;rounded=0;" parent="0L0t79msyySQdzXoJwu8-1" vertex="1">
          <mxGeometry x="1094" y="525" width="180" height="30" as="geometry" />
        </mxCell>
        <mxCell id="0L0t79msyySQdzXoJwu8-9" value="函数分析的流程图" style="rounded=1;whiteSpace=wrap;html=1;fillColor=#f8cecc;strokeColor=#b85450;fontSize=24;" parent="0L0t79msyySQdzXoJwu8-1" vertex="1">
          <mxGeometry x="840" y="280" width="120" height="60" as="geometry" />
        </mxCell>
        <mxCell id="0L0t79msyySQdzXoJwu8-15" value="" style="edgeStyle=elbowEdgeStyle;elbow=horizontal;html=1;rounded=1;curved=0;sourcePerimeterSpacing=0;targetPerimeterSpacing=0;startSize=6;endSize=6;strokeColor=#000000;shadow=0;entryX=0;entryY=0.5;entryDx=0;entryDy=0;" parent="0L0t79msyySQdzXoJwu8-1" target="0L0t79msyySQdzXoJwu8-16" edge="1">
          <mxGeometry relative="1" as="geometry">
            <mxPoint x="1490" y="585" as="sourcePoint" />
            <mxPoint x="1540" y="550.0250000000001" as="targetPoint" />
          </mxGeometry>
        </mxCell>
        <mxCell id="0L0t79msyySQdzXoJwu8-16" value="&lt;font color=&quot;#ff0000&quot;&gt;&lt;span style=&quot;font-size: 20px; background-color: rgb(255, 255, 0);&quot;&gt;校验&amp;nbsp;&lt;/span&gt;&lt;/font&gt;&lt;span style=&quot;color: rgb(255, 0, 0); font-size: 20px; background-color: rgb(255, 255, 0);&quot;&gt;input/file 等&lt;/span&gt;&lt;font color=&quot;#ff0000&quot;&gt;&lt;span style=&quot;font-size: 20px; background-color: rgb(255, 255, 0);&quot;&gt;属性值&lt;/span&gt;&lt;/font&gt;&lt;span style=&quot;background-color: rgb(255, 255, 0); font-size: 20px; color: rgb(255, 0, 0);&quot;&gt;是否合法&lt;/span&gt;" style="text;html=1;align=left;verticalAlign=middle;whiteSpace=wrap;rounded=0;" parent="0L0t79msyySQdzXoJwu8-1" vertex="1">
          <mxGeometry x="1540" y="530" width="150" height="30" as="geometry" />
        </mxCell>
        <mxCell id="RpM7qKJ9zzv_w0JzTeb4-0" value="新增" style="rounded=0;whiteSpace=wrap;html=1;fillColor=#cce5ff;strokeColor=#36393d;" parent="0L0t79msyySQdzXoJwu8-1" vertex="1">
          <mxGeometry x="1720" y="300" width="40" height="20" as="geometry" />
        </mxCell>
        <mxCell id="RpM7qKJ9zzv_w0JzTeb4-1" value="修改" style="rounded=0;whiteSpace=wrap;html=1;fillColor=#ffcc99;strokeColor=#36393d;" parent="0L0t79msyySQdzXoJwu8-1" vertex="1">
          <mxGeometry x="1720" y="320" width="40" height="20" as="geometry" />
        </mxCell>
        <mxCell id="sVvkOi36QpSgGo5PRrt9-2" value="&lt;div style=&quot;line-height: 100%;&quot; class=&quot;lake-content&quot;&gt;&lt;div style=&quot;line-height: 100%;&quot; class=&quot;lake-content&quot;&gt;&lt;div style=&quot;line-height: 100%;&quot; class=&quot;lake-content&quot;&gt;&lt;h5 style=&quot;line-height: 100%; margin: 8px 0px 5px;&quot; data-lake-index-type=&quot;2&quot; id=&quot;VZi8U&quot;&gt;&lt;div style=&quot;font-size: 20px; line-height: 100%;&quot; class=&quot;lake-content&quot;&gt;&lt;span style=&quot;font-weight: normal;&quot; class=&quot;ne-text&quot;&gt;ScalarFunction.java&lt;/span&gt;&lt;/div&gt;&lt;span style=&quot;font-size: 20px;&quot;&gt;ScalarFunction.&lt;/span&gt;&lt;font style=&quot;font-size: 20px;&quot;&gt;scalarFunctionBuilder&lt;/font&gt;&lt;/h5&gt;&lt;/div&gt;&lt;/div&gt;&lt;/div&gt;" style="rounded=1;whiteSpace=wrap;html=1;fillColor=#cce5ff;fontSize=20;strokeColor=#36393d;glass=0;" vertex="1" parent="0L0t79msyySQdzXoJwu8-1">
          <mxGeometry x="1540" y="600" width="370" height="60" as="geometry" />
        </mxCell>
      </root>
    </mxGraphModel>
  </diagram>
  <diagram name="sr-create-java-udf" id="hCIyc2ZmFXIiRjCOZ-eE">
    <mxGraphModel dx="2261" dy="2005" grid="1" gridSize="10" guides="1" tooltips="1" connect="1" arrows="1" fold="1" page="1" pageScale="1" pageWidth="827" pageHeight="1169" math="0" shadow="0">
      <root>
        <mxCell id="b5e4eX0yY2GbYjKWky9m-0" />
        <mxCell id="b5e4eX0yY2GbYjKWky9m-1" parent="b5e4eX0yY2GbYjKWky9m-0" />
        <mxCell id="b5e4eX0yY2GbYjKWky9m-13" value="&lt;span style=&quot;font-size: 20px;&quot;&gt;&lt;b&gt;handleDdlStmt&lt;/b&gt;&lt;/span&gt;" style="whiteSpace=wrap;html=1;rounded=1;fillColor=none;" parent="b5e4eX0yY2GbYjKWky9m-1" vertex="1">
          <mxGeometry x="590" y="340" width="170" height="60" as="geometry" />
        </mxCell>
        <UserObject label="&lt;div class=&quot;lake-content&quot;&gt;&lt;span class=&quot;ne-text&quot;&gt;&lt;font style=&quot;font-size: 16px;&quot;&gt;StmtExecutor.java&lt;/font&gt;&lt;/span&gt;&lt;/div&gt;" id="b5e4eX0yY2GbYjKWky9m-19">
          <mxCell style="text;whiteSpace=wrap;html=1;" parent="b5e4eX0yY2GbYjKWky9m-1" vertex="1">
            <mxGeometry x="610" y="335" width="102" height="40" as="geometry" />
          </mxCell>
        </UserObject>
        <mxCell id="b5e4eX0yY2GbYjKWky9m-2" value="" style="edgeStyle=orthogonalEdgeStyle;rounded=0;orthogonalLoop=1;jettySize=auto;html=1;" parent="b5e4eX0yY2GbYjKWky9m-1" source="b5e4eX0yY2GbYjKWky9m-5" target="b5e4eX0yY2GbYjKWky9m-6" edge="1">
          <mxGeometry relative="1" as="geometry" />
        </mxCell>
        <mxCell id="b5e4eX0yY2GbYjKWky9m-3" value="" style="edgeStyle=orthogonalEdgeStyle;rounded=0;orthogonalLoop=1;jettySize=auto;html=1;" parent="b5e4eX0yY2GbYjKWky9m-1" source="b5e4eX0yY2GbYjKWky9m-5" target="b5e4eX0yY2GbYjKWky9m-6" edge="1">
          <mxGeometry relative="1" as="geometry" />
        </mxCell>
        <mxCell id="b5e4eX0yY2GbYjKWky9m-4" value="" style="edgeStyle=orthogonalEdgeStyle;rounded=0;orthogonalLoop=1;jettySize=auto;html=1;" parent="b5e4eX0yY2GbYjKWky9m-1" source="b5e4eX0yY2GbYjKWky9m-5" target="b5e4eX0yY2GbYjKWky9m-9" edge="1">
          <mxGeometry relative="1" as="geometry" />
        </mxCell>
        <mxCell id="b5e4eX0yY2GbYjKWky9m-5" value="&lt;div class=&quot;lake-content&quot;&gt;&lt;h3 style=&quot;font-size: 20; line-height: 28px; margin: 16px 0 5px 0&quot; data-lake-index-type=&quot;2&quot; id=&quot;EUZ3T&quot;&gt;&lt;span class=&quot;ne-text&quot;&gt;&lt;font style=&quot;font-size: 20px;&quot;&gt;executeQuery&lt;/font&gt;&lt;/span&gt;&lt;/h3&gt;&lt;/div&gt;" style="rounded=1;whiteSpace=wrap;html=1;fillColor=none;" parent="b5e4eX0yY2GbYjKWky9m-1" vertex="1">
          <mxGeometry x="180" y="70" width="260" height="60" as="geometry" />
        </mxCell>
        <mxCell id="nnP_VeyE53ktGgjYvAu4-1" value="" style="edgeStyle=orthogonalEdgeStyle;rounded=0;orthogonalLoop=1;jettySize=auto;html=1;" parent="b5e4eX0yY2GbYjKWky9m-1" source="b5e4eX0yY2GbYjKWky9m-6" target="nnP_VeyE53ktGgjYvAu4-0" edge="1">
          <mxGeometry relative="1" as="geometry" />
        </mxCell>
        <mxCell id="b5e4eX0yY2GbYjKWky9m-6" value="&lt;font style=&quot;font-size: 20px;&quot;&gt;&lt;b&gt;parse&lt;/b&gt;&lt;/font&gt;" style="rounded=1;whiteSpace=wrap;html=1;fillColor=none;" parent="b5e4eX0yY2GbYjKWky9m-1" vertex="1">
          <mxGeometry x="60" y="210" width="120" height="50" as="geometry" />
        </mxCell>
        <mxCell id="b5e4eX0yY2GbYjKWky9m-7" value="" style="edgeStyle=orthogonalEdgeStyle;rounded=0;orthogonalLoop=1;jettySize=auto;html=1;" parent="b5e4eX0yY2GbYjKWky9m-1" source="b5e4eX0yY2GbYjKWky9m-9" target="b5e4eX0yY2GbYjKWky9m-11" edge="1">
          <mxGeometry relative="1" as="geometry">
            <Array as="points">
              <mxPoint x="530" y="305" />
              <mxPoint x="380" y="305" />
            </Array>
          </mxGeometry>
        </mxCell>
        <mxCell id="b5e4eX0yY2GbYjKWky9m-8" value="" style="edgeStyle=orthogonalEdgeStyle;rounded=0;orthogonalLoop=1;jettySize=auto;html=1;" parent="b5e4eX0yY2GbYjKWky9m-1" source="b5e4eX0yY2GbYjKWky9m-9" target="b5e4eX0yY2GbYjKWky9m-13" edge="1">
          <mxGeometry relative="1" as="geometry" />
        </mxCell>
        <mxCell id="b5e4eX0yY2GbYjKWky9m-9" value="&lt;font style=&quot;font-size: 20px;&quot;&gt;&lt;b&gt;executor.execute()&lt;/b&gt;&lt;/font&gt;" style="whiteSpace=wrap;html=1;rounded=1;fillColor=none;" parent="b5e4eX0yY2GbYjKWky9m-1" vertex="1">
          <mxGeometry x="430" y="210" width="200" height="60" as="geometry" />
        </mxCell>
        <mxCell id="b5e4eX0yY2GbYjKWky9m-10" value="&lt;h3 style=&quot;text-wrap: wrap; line-height: 28px; margin: 16px 0px 5px; font-size: 16px;&quot; data-lake-index-type=&quot;2&quot; id=&quot;EUZ3T&quot;&gt;&lt;span style=&quot;font-weight: normal;&quot;&gt;&amp;nbsp;&lt;span style=&quot;&quot; class=&quot;ne-text&quot;&gt;ConnectProcessor.java&lt;/span&gt;&lt;/span&gt;&lt;/h3&gt;" style="text;html=1;align=center;verticalAlign=middle;resizable=0;points=[];autosize=1;strokeColor=none;fillColor=none;" parent="b5e4eX0yY2GbYjKWky9m-1" vertex="1">
          <mxGeometry x="214.5" y="50" width="190" height="60" as="geometry" />
        </mxCell>
        <mxCell id="nnP_VeyE53ktGgjYvAu4-4" value="" style="edgeStyle=orthogonalEdgeStyle;rounded=0;orthogonalLoop=1;jettySize=auto;html=1;" parent="b5e4eX0yY2GbYjKWky9m-1" source="b5e4eX0yY2GbYjKWky9m-11" target="nnP_VeyE53ktGgjYvAu4-3" edge="1">
          <mxGeometry relative="1" as="geometry">
            <Array as="points">
              <mxPoint x="380" y="420" />
              <mxPoint x="380" y="420" />
            </Array>
          </mxGeometry>
        </mxCell>
        <mxCell id="b5e4eX0yY2GbYjKWky9m-11" value="&lt;font style=&quot;font-size: 20px;&quot;&gt;&lt;b&gt;plan&lt;/b&gt;&lt;/font&gt;" style="whiteSpace=wrap;html=1;rounded=1;fillColor=none;" parent="b5e4eX0yY2GbYjKWky9m-1" vertex="1">
          <mxGeometry x="296.25" y="340" width="170" height="60" as="geometry" />
        </mxCell>
        <mxCell id="b5e4eX0yY2GbYjKWky9m-12" value="" style="edgeStyle=orthogonalEdgeStyle;rounded=0;orthogonalLoop=1;jettySize=auto;html=1;" parent="b5e4eX0yY2GbYjKWky9m-1" source="b5e4eX0yY2GbYjKWky9m-13" target="b5e4eX0yY2GbYjKWky9m-25" edge="1">
          <mxGeometry relative="1" as="geometry" />
        </mxCell>
        <mxCell id="b5e4eX0yY2GbYjKWky9m-14" value="&lt;div class=&quot;lake-content&quot;&gt;&lt;span class=&quot;ne-text&quot;&gt;&lt;font style=&quot;font-size: 20px;&quot;&gt;&lt;b&gt;analyzeCommon&lt;/b&gt;&lt;/font&gt;&lt;/span&gt;&lt;/div&gt;" style="whiteSpace=wrap;html=1;rounded=1;fillColor=none;" parent="b5e4eX0yY2GbYjKWky9m-1" vertex="1">
          <mxGeometry x="214.5" y="674" width="170" height="56" as="geometry" />
        </mxCell>
        <mxCell id="nnP_VeyE53ktGgjYvAu4-23" value="" style="edgeStyle=orthogonalEdgeStyle;rounded=0;orthogonalLoop=1;jettySize=auto;html=1;" parent="b5e4eX0yY2GbYjKWky9m-1" source="b5e4eX0yY2GbYjKWky9m-18" target="b5e4eX0yY2GbYjKWky9m-14" edge="1">
          <mxGeometry relative="1" as="geometry">
            <Array as="points">
              <mxPoint x="379" y="640" />
              <mxPoint x="290" y="640" />
            </Array>
          </mxGeometry>
        </mxCell>
        <mxCell id="nnP_VeyE53ktGgjYvAu4-30" style="edgeStyle=orthogonalEdgeStyle;rounded=0;orthogonalLoop=1;jettySize=auto;html=1;entryX=0.302;entryY=-0.033;entryDx=0;entryDy=0;entryPerimeter=0;" parent="b5e4eX0yY2GbYjKWky9m-1" target="b5e4eX0yY2GbYjKWky9m-22" edge="1">
          <mxGeometry relative="1" as="geometry">
            <mxPoint x="379" y="595" as="sourcePoint" />
            <mxPoint x="471" y="669" as="targetPoint" />
            <Array as="points">
              <mxPoint x="379" y="640" />
              <mxPoint x="471" y="640" />
            </Array>
          </mxGeometry>
        </mxCell>
        <mxCell id="b5e4eX0yY2GbYjKWky9m-18" value="&lt;font style=&quot;font-size: 20px;&quot;&gt;&lt;b&gt;analyze&lt;/b&gt;&lt;/font&gt;" style="whiteSpace=wrap;html=1;rounded=1;fillColor=none;" parent="b5e4eX0yY2GbYjKWky9m-1" vertex="1">
          <mxGeometry x="280" y="540" width="210" height="55" as="geometry" />
        </mxCell>
        <mxCell id="b5e4eX0yY2GbYjKWky9m-20" value="&lt;div class=&quot;lake-content&quot;&gt;&lt;div class=&quot;lake-content&quot;&gt;&lt;span class=&quot;ne-text&quot;&gt;&lt;font color=&quot;#ff0000&quot; style=&quot;font-size: 16px;&quot;&gt;CreateFunctionAnalyzer.java&lt;/font&gt;&lt;/span&gt;&lt;/div&gt;&lt;/div&gt;" style="text;html=1;align=center;verticalAlign=middle;whiteSpace=wrap;rounded=0;" parent="b5e4eX0yY2GbYjKWky9m-1" vertex="1">
          <mxGeometry x="354" y="538" width="60" height="30" as="geometry" />
        </mxCell>
        <mxCell id="8eSyE3x1a8EWj8VO3p1W-3" value="" style="edgeStyle=orthogonalEdgeStyle;rounded=0;orthogonalLoop=1;jettySize=auto;html=1;" parent="b5e4eX0yY2GbYjKWky9m-1" source="b5e4eX0yY2GbYjKWky9m-22" target="8eSyE3x1a8EWj8VO3p1W-2" edge="1">
          <mxGeometry relative="1" as="geometry">
            <Array as="points">
              <mxPoint x="510" y="760" />
              <mxPoint x="510" y="760" />
            </Array>
          </mxGeometry>
        </mxCell>
        <mxCell id="b5e4eX0yY2GbYjKWky9m-22" value="&lt;span style=&quot;font-size: 20px;&quot;&gt;&lt;b&gt;analyzeJavaUDFClass&lt;/b&gt;&lt;/span&gt;" style="whiteSpace=wrap;html=1;rounded=1;fillColor=none;" parent="b5e4eX0yY2GbYjKWky9m-1" vertex="1">
          <mxGeometry x="404.5" y="674" width="220" height="56" as="geometry" />
        </mxCell>
        <mxCell id="b5e4eX0yY2GbYjKWky9m-24" value="" style="edgeStyle=orthogonalEdgeStyle;rounded=0;orthogonalLoop=1;jettySize=auto;html=1;" parent="b5e4eX0yY2GbYjKWky9m-1" source="b5e4eX0yY2GbYjKWky9m-25" target="b5e4eX0yY2GbYjKWky9m-27" edge="1">
          <mxGeometry relative="1" as="geometry" />
        </mxCell>
        <mxCell id="b5e4eX0yY2GbYjKWky9m-25" value="&lt;div style=&quot;&quot; class=&quot;lake-content&quot;&gt;&lt;h3 style=&quot;line-height: 28px; margin: 16px 0px 5px;&quot; data-lake-index-type=&quot;2&quot; id=&quot;pqNoD&quot;&gt;&lt;span style=&quot;font-size: 20px;&quot;&gt;visitCreateFunctionStatement&lt;/span&gt;&lt;br&gt;&lt;/h3&gt;&lt;/div&gt;" style="whiteSpace=wrap;html=1;rounded=1;fillColor=none;" parent="b5e4eX0yY2GbYjKWky9m-1" vertex="1">
          <mxGeometry x="529.22" y="440" width="291.56" height="60" as="geometry" />
        </mxCell>
        <mxCell id="b5e4eX0yY2GbYjKWky9m-26" value="&lt;div class=&quot;lake-content&quot;&gt;&lt;div class=&quot;lake-content&quot;&gt;&lt;span class=&quot;ne-text&quot;&gt;DDLStmtExecutor.java&lt;/span&gt;&lt;/div&gt;&lt;/div&gt;" style="text;html=1;align=center;verticalAlign=middle;whiteSpace=wrap;rounded=0;" parent="b5e4eX0yY2GbYjKWky9m-1" vertex="1">
          <mxGeometry x="645" y="440" width="60" height="30" as="geometry" />
        </mxCell>
        <mxCell id="b5e4eX0yY2GbYjKWky9m-27" value="&lt;div style=&quot;font-size: 20px;&quot; class=&quot;lake-content&quot;&gt;&lt;h3 style=&quot;font-size: 20; line-height: 28px; margin: 16px 0 5px 0&quot; data-lake-index-type=&quot;2&quot; id=&quot;pqNoD&quot;&gt;&lt;span style=&quot;font-size: 20px;&quot;&gt;&amp;nbsp;&lt;/span&gt;&lt;span style=&quot;font-size: 20px;&quot; class=&quot;ne-text&quot;&gt;addFunction&lt;/span&gt;&lt;/h3&gt;&lt;/div&gt;" style="whiteSpace=wrap;html=1;rounded=1;fillColor=none;" parent="b5e4eX0yY2GbYjKWky9m-1" vertex="1">
          <mxGeometry x="600" y="540" width="150" height="60" as="geometry" />
        </mxCell>
        <mxCell id="b5e4eX0yY2GbYjKWky9m-28" value="&lt;div class=&quot;lake-content&quot;&gt;&lt;span class=&quot;ne-text&quot;&gt;Database.java&lt;/span&gt;&lt;/div&gt;" style="text;html=1;align=center;verticalAlign=middle;whiteSpace=wrap;rounded=0;" parent="b5e4eX0yY2GbYjKWky9m-1" vertex="1">
          <mxGeometry x="645" y="540" width="60" height="30" as="geometry" />
        </mxCell>
        <mxCell id="b5e4eX0yY2GbYjKWky9m-29" value="&lt;font style=&quot;font-size: 30px;&quot;&gt;SR&lt;/font&gt;&lt;div&gt;&lt;font style=&quot;font-size: 30px;&quot;&gt;create function&lt;/font&gt;&lt;/div&gt;" style="rounded=1;whiteSpace=wrap;html=1;fillColor=#f8cecc;strokeColor=#b85450;" parent="b5e4eX0yY2GbYjKWky9m-1" vertex="1">
          <mxGeometry x="10" y="-80" width="220" height="80" as="geometry" />
        </mxCell>
        <mxCell id="b5e4eX0yY2GbYjKWky9m-30" value="解析 SQL，生成 stmts" style="text;html=1;align=left;verticalAlign=middle;whiteSpace=wrap;rounded=0;fontSize=12;" parent="b5e4eX0yY2GbYjKWky9m-1" vertex="1">
          <mxGeometry x="60" y="270" width="140" height="30" as="geometry" />
        </mxCell>
        <mxCell id="b5e4eX0yY2GbYjKWky9m-31" value="执行 stmts" style="text;html=1;align=left;verticalAlign=middle;whiteSpace=wrap;rounded=0;fontSize=12;" parent="b5e4eX0yY2GbYjKWky9m-1" vertex="1">
          <mxGeometry x="610" y="308" width="95" height="30" as="geometry" />
        </mxCell>
        <mxCell id="nnP_VeyE53ktGgjYvAu4-0" value="&lt;span style=&quot;font-size: 20px;&quot;&gt;&lt;b&gt;parseWithStarRocksDialect&lt;/b&gt;&lt;/span&gt;" style="rounded=1;whiteSpace=wrap;html=1;fillColor=none;" parent="b5e4eX0yY2GbYjKWky9m-1" vertex="1">
          <mxGeometry x="-15" y="315" width="270" height="60" as="geometry" />
        </mxCell>
        <mxCell id="nnP_VeyE53ktGgjYvAu4-12" value="" style="edgeStyle=orthogonalEdgeStyle;rounded=0;orthogonalLoop=1;jettySize=auto;html=1;" parent="b5e4eX0yY2GbYjKWky9m-1" source="nnP_VeyE53ktGgjYvAu4-3" target="b5e4eX0yY2GbYjKWky9m-18" edge="1">
          <mxGeometry relative="1" as="geometry">
            <Array as="points">
              <mxPoint x="380" y="530" />
              <mxPoint x="380" y="530" />
            </Array>
          </mxGeometry>
        </mxCell>
        <mxCell id="nnP_VeyE53ktGgjYvAu4-3" value="&lt;div class=&quot;lake-content&quot;&gt;&lt;span class=&quot;ne-text&quot;&gt;&lt;font style=&quot;font-size: 20px;&quot;&gt;&lt;b&gt;analyzeStatement&lt;/b&gt;&lt;/font&gt;&lt;/span&gt;&lt;/div&gt;" style="whiteSpace=wrap;html=1;rounded=1;fillColor=none;" parent="b5e4eX0yY2GbYjKWky9m-1" vertex="1">
          <mxGeometry x="287.5" y="440" width="182.5" height="60" as="geometry" />
        </mxCell>
        <mxCell id="nnP_VeyE53ktGgjYvAu4-5" value="&lt;div class=&quot;lake-content&quot;&gt;&lt;span class=&quot;ne-text&quot;&gt;&lt;font style=&quot;font-size: 16px;&quot;&gt;StatementPlanner.java&lt;/font&gt;&lt;/span&gt;&lt;/div&gt;" style="text;html=1;align=center;verticalAlign=middle;whiteSpace=wrap;rounded=0;" parent="b5e4eX0yY2GbYjKWky9m-1" vertex="1">
          <mxGeometry x="351.25" y="338" width="60" height="30" as="geometry" />
        </mxCell>
        <mxCell id="nnP_VeyE53ktGgjYvAu4-6" value="&lt;div class=&quot;lake-content&quot;&gt;&lt;span class=&quot;ne-text&quot;&gt;&lt;font style=&quot;font-size: 16px;&quot;&gt;StatementPlanner.java&lt;/font&gt;&lt;/span&gt;&lt;/div&gt;" style="text;html=1;align=center;verticalAlign=middle;whiteSpace=wrap;rounded=0;" parent="b5e4eX0yY2GbYjKWky9m-1" vertex="1">
          <mxGeometry x="351.25" y="438" width="60" height="30" as="geometry" />
        </mxCell>
        <UserObject label="&lt;div class=&quot;lake-content&quot;&gt;&lt;span class=&quot;ne-text&quot;&gt;&lt;font style=&quot;font-size: 16px;&quot;&gt;StmtExecutor.java&lt;/font&gt;&lt;/span&gt;&lt;/div&gt;" id="nnP_VeyE53ktGgjYvAu4-31">
          <mxCell style="text;whiteSpace=wrap;html=1;" parent="b5e4eX0yY2GbYjKWky9m-1" vertex="1">
            <mxGeometry x="470" y="206" width="102" height="40" as="geometry" />
          </mxCell>
        </UserObject>
        <UserObject label="&lt;div class=&quot;lake-content&quot;&gt;&lt;div class=&quot;lake-content&quot;&gt;&lt;span class=&quot;ne-text&quot;&gt;&lt;font style=&quot;font-size: 16px;&quot;&gt;SqlParser.java&lt;/font&gt;&lt;/span&gt;&lt;/div&gt;&lt;/div&gt;" id="nnP_VeyE53ktGgjYvAu4-32">
          <mxCell style="text;whiteSpace=wrap;html=1;" parent="b5e4eX0yY2GbYjKWky9m-1" vertex="1">
            <mxGeometry x="69" y="206" width="102" height="40" as="geometry" />
          </mxCell>
        </UserObject>
        <mxCell id="8eSyE3x1a8EWj8VO3p1W-0" value="分析函数的通用属性" style="text;html=1;align=left;verticalAlign=middle;whiteSpace=wrap;rounded=0;" parent="b5e4eX0yY2GbYjKWky9m-1" vertex="1">
          <mxGeometry x="297.25" y="643" width="70" height="30" as="geometry" />
        </mxCell>
        <mxCell id="8eSyE3x1a8EWj8VO3p1W-1" value="JAVA UDF" style="text;html=1;align=center;verticalAlign=middle;whiteSpace=wrap;rounded=0;" parent="b5e4eX0yY2GbYjKWky9m-1" vertex="1">
          <mxGeometry x="477.5" y="639" width="70" height="30" as="geometry" />
        </mxCell>
        <mxCell id="8eSyE3x1a8EWj8VO3p1W-2" value="&lt;span style=&quot;font-size: 20px;&quot;&gt;&lt;b&gt;analyzeStarrocksJarUdf&lt;/b&gt;&lt;/span&gt;" style="whiteSpace=wrap;html=1;rounded=1;fillColor=none;" parent="b5e4eX0yY2GbYjKWky9m-1" vertex="1">
          <mxGeometry x="400" y="780" width="230" height="56" as="geometry" />
        </mxCell>
        <mxCell id="8eSyE3x1a8EWj8VO3p1W-4" value="创建函数对象实例" style="text;html=1;align=center;verticalAlign=middle;whiteSpace=wrap;rounded=0;" parent="b5e4eX0yY2GbYjKWky9m-1" vertex="1">
          <mxGeometry x="520" y="740" width="100" height="30" as="geometry" />
        </mxCell>
        <mxCell id="8eSyE3x1a8EWj8VO3p1W-5" value="分析" style="text;html=1;align=left;verticalAlign=middle;whiteSpace=wrap;rounded=0;fontSize=12;" parent="b5e4eX0yY2GbYjKWky9m-1" vertex="1">
          <mxGeometry x="395" y="310" width="95" height="30" as="geometry" />
        </mxCell>
        <mxCell id="uLtKjLMt4NWghVZ1W1CH-0" value="在数据库中注册函数" style="text;html=1;align=left;verticalAlign=middle;whiteSpace=wrap;rounded=0;" parent="b5e4eX0yY2GbYjKWky9m-1" vertex="1">
          <mxGeometry x="680" y="508" width="110" height="30" as="geometry" />
        </mxCell>
      </root>
    </mxGraphModel>
  </diagram>
  <diagram name="sr-create-python-udf" id="VHRXfP5KCDEcfamkc73C">
    <mxGraphModel dx="2261" dy="2005" grid="1" gridSize="10" guides="1" tooltips="1" connect="1" arrows="1" fold="1" page="1" pageScale="1" pageWidth="827" pageHeight="1169" math="0" shadow="0">
      <root>
        <mxCell id="539x1Jcv6dD9MsZK7sAv-0" />
        <mxCell id="539x1Jcv6dD9MsZK7sAv-1" parent="539x1Jcv6dD9MsZK7sAv-0" />
        <mxCell id="539x1Jcv6dD9MsZK7sAv-2" value="&lt;span style=&quot;font-size: 20px;&quot;&gt;&lt;b&gt;handleDdlStmt&lt;/b&gt;&lt;/span&gt;" style="whiteSpace=wrap;html=1;rounded=1;fillColor=none;" parent="539x1Jcv6dD9MsZK7sAv-1" vertex="1">
          <mxGeometry x="590" y="340" width="170" height="60" as="geometry" />
        </mxCell>
        <UserObject label="&lt;div class=&quot;lake-content&quot;&gt;&lt;span class=&quot;ne-text&quot;&gt;&lt;font style=&quot;font-size: 16px;&quot;&gt;StmtExecutor.java&lt;/font&gt;&lt;/span&gt;&lt;/div&gt;" id="539x1Jcv6dD9MsZK7sAv-3">
          <mxCell style="text;whiteSpace=wrap;html=1;" parent="539x1Jcv6dD9MsZK7sAv-1" vertex="1">
            <mxGeometry x="610" y="335" width="102" height="40" as="geometry" />
          </mxCell>
        </UserObject>
        <mxCell id="539x1Jcv6dD9MsZK7sAv-5" value="" style="edgeStyle=orthogonalEdgeStyle;rounded=0;orthogonalLoop=1;jettySize=auto;html=1;" parent="539x1Jcv6dD9MsZK7sAv-1" target="539x1Jcv6dD9MsZK7sAv-9" edge="1">
          <mxGeometry relative="1" as="geometry">
            <mxPoint x="246" y="120" as="sourcePoint" />
            <Array as="points">
              <mxPoint x="300" y="120" />
              <mxPoint x="300" y="160" />
              <mxPoint x="65" y="160" />
            </Array>
          </mxGeometry>
        </mxCell>
        <mxCell id="539x1Jcv6dD9MsZK7sAv-6" value="" style="edgeStyle=orthogonalEdgeStyle;rounded=0;orthogonalLoop=1;jettySize=auto;html=1;" parent="539x1Jcv6dD9MsZK7sAv-1" target="539x1Jcv6dD9MsZK7sAv-12" edge="1">
          <mxGeometry relative="1" as="geometry">
            <mxPoint x="301" y="120" as="sourcePoint" />
            <Array as="points">
              <mxPoint x="300" y="120" />
              <mxPoint x="300" y="160" />
              <mxPoint x="530" y="160" />
            </Array>
          </mxGeometry>
        </mxCell>
        <mxCell id="539x1Jcv6dD9MsZK7sAv-8" value="" style="edgeStyle=orthogonalEdgeStyle;rounded=0;orthogonalLoop=1;jettySize=auto;html=1;" parent="539x1Jcv6dD9MsZK7sAv-1" source="539x1Jcv6dD9MsZK7sAv-9" target="539x1Jcv6dD9MsZK7sAv-32" edge="1">
          <mxGeometry relative="1" as="geometry" />
        </mxCell>
        <mxCell id="539x1Jcv6dD9MsZK7sAv-9" value="&lt;div style=&quot;line-height: 120%;&quot;&gt;&lt;span style=&quot;font-size: 16px; text-align: left;&quot;&gt;SqlParser.java&lt;/span&gt;&lt;b style=&quot;background-color: initial; font-size: 20px;&quot;&gt;&lt;br&gt;&lt;/b&gt;&lt;/div&gt;&lt;div style=&quot;line-height: 120%;&quot;&gt;&lt;b style=&quot;background-color: initial; font-size: 20px;&quot;&gt;parse&lt;/b&gt;&lt;br&gt;&lt;/div&gt;" style="rounded=1;whiteSpace=wrap;html=1;fillColor=none;" parent="539x1Jcv6dD9MsZK7sAv-1" vertex="1">
          <mxGeometry x="5" y="210" width="120" height="50" as="geometry" />
        </mxCell>
        <mxCell id="539x1Jcv6dD9MsZK7sAv-10" value="" style="edgeStyle=orthogonalEdgeStyle;rounded=0;orthogonalLoop=1;jettySize=auto;html=1;" parent="539x1Jcv6dD9MsZK7sAv-1" source="539x1Jcv6dD9MsZK7sAv-12" target="539x1Jcv6dD9MsZK7sAv-15" edge="1">
          <mxGeometry relative="1" as="geometry">
            <Array as="points">
              <mxPoint x="530" y="305" />
              <mxPoint x="380" y="305" />
            </Array>
          </mxGeometry>
        </mxCell>
        <mxCell id="539x1Jcv6dD9MsZK7sAv-11" value="" style="edgeStyle=orthogonalEdgeStyle;rounded=0;orthogonalLoop=1;jettySize=auto;html=1;" parent="539x1Jcv6dD9MsZK7sAv-1" source="539x1Jcv6dD9MsZK7sAv-12" target="539x1Jcv6dD9MsZK7sAv-2" edge="1">
          <mxGeometry relative="1" as="geometry" />
        </mxCell>
        <mxCell id="539x1Jcv6dD9MsZK7sAv-12" value="&lt;div&gt;&lt;font style=&quot;font-size: 20px;&quot;&gt;&lt;span style=&quot;font-size: 16px; text-align: left;&quot;&gt;StmtExecutor.java&lt;/span&gt;&lt;b&gt;&lt;br&gt;&lt;/b&gt;&lt;/font&gt;&lt;/div&gt;&lt;font style=&quot;font-size: 20px;&quot;&gt;&lt;b&gt;executor.execute()&lt;/b&gt;&lt;/font&gt;" style="whiteSpace=wrap;html=1;rounded=1;fillColor=none;" parent="539x1Jcv6dD9MsZK7sAv-1" vertex="1">
          <mxGeometry x="430" y="210" width="200" height="60" as="geometry" />
        </mxCell>
        <mxCell id="539x1Jcv6dD9MsZK7sAv-14" value="" style="edgeStyle=orthogonalEdgeStyle;rounded=0;orthogonalLoop=1;jettySize=auto;html=1;" parent="539x1Jcv6dD9MsZK7sAv-1" source="539x1Jcv6dD9MsZK7sAv-15" target="539x1Jcv6dD9MsZK7sAv-34" edge="1">
          <mxGeometry relative="1" as="geometry">
            <Array as="points">
              <mxPoint x="380" y="420" />
              <mxPoint x="380" y="420" />
            </Array>
          </mxGeometry>
        </mxCell>
        <mxCell id="539x1Jcv6dD9MsZK7sAv-15" value="&lt;font style=&quot;font-size: 20px;&quot;&gt;&lt;b&gt;plan&lt;/b&gt;&lt;/font&gt;" style="whiteSpace=wrap;html=1;rounded=1;fillColor=none;" parent="539x1Jcv6dD9MsZK7sAv-1" vertex="1">
          <mxGeometry x="296.25" y="340" width="170" height="60" as="geometry" />
        </mxCell>
        <mxCell id="539x1Jcv6dD9MsZK7sAv-16" value="" style="edgeStyle=orthogonalEdgeStyle;rounded=0;orthogonalLoop=1;jettySize=auto;html=1;" parent="539x1Jcv6dD9MsZK7sAv-1" source="539x1Jcv6dD9MsZK7sAv-2" target="539x1Jcv6dD9MsZK7sAv-25" edge="1">
          <mxGeometry relative="1" as="geometry" />
        </mxCell>
        <mxCell id="539x1Jcv6dD9MsZK7sAv-17" value="&lt;div class=&quot;lake-content&quot;&gt;&lt;span class=&quot;ne-text&quot;&gt;&lt;font style=&quot;font-size: 20px;&quot;&gt;&lt;b&gt;analyzeCommon&lt;/b&gt;&lt;/font&gt;&lt;/span&gt;&lt;/div&gt;" style="whiteSpace=wrap;html=1;rounded=1;fillColor=none;" parent="539x1Jcv6dD9MsZK7sAv-1" vertex="1">
          <mxGeometry x="214.5" y="674" width="170" height="56" as="geometry" />
        </mxCell>
        <mxCell id="539x1Jcv6dD9MsZK7sAv-18" value="" style="edgeStyle=orthogonalEdgeStyle;rounded=0;orthogonalLoop=1;jettySize=auto;html=1;" parent="539x1Jcv6dD9MsZK7sAv-1" source="539x1Jcv6dD9MsZK7sAv-20" target="539x1Jcv6dD9MsZK7sAv-17" edge="1">
          <mxGeometry relative="1" as="geometry">
            <Array as="points">
              <mxPoint x="379" y="640" />
              <mxPoint x="290" y="640" />
            </Array>
          </mxGeometry>
        </mxCell>
        <mxCell id="539x1Jcv6dD9MsZK7sAv-19" style="edgeStyle=orthogonalEdgeStyle;rounded=0;orthogonalLoop=1;jettySize=auto;html=1;entryX=0.457;entryY=0;entryDx=0;entryDy=0;entryPerimeter=0;" parent="539x1Jcv6dD9MsZK7sAv-1" target="539x1Jcv6dD9MsZK7sAv-23" edge="1">
          <mxGeometry relative="1" as="geometry">
            <mxPoint x="379" y="595" as="sourcePoint" />
            <mxPoint x="466" y="660" as="targetPoint" />
            <Array as="points">
              <mxPoint x="379" y="640" />
              <mxPoint x="466" y="640" />
            </Array>
          </mxGeometry>
        </mxCell>
        <mxCell id="539x1Jcv6dD9MsZK7sAv-20" value="&lt;div&gt;&lt;font style=&quot;font-size: 20px;&quot;&gt;&lt;span style=&quot;font-size: 16px;&quot;&gt;&lt;font color=&quot;#ff0000&quot;&gt;CreateFunctionAnalyzer.java&lt;/font&gt;&lt;/span&gt;&lt;b&gt;&lt;br&gt;&lt;/b&gt;&lt;/font&gt;&lt;/div&gt;&lt;font style=&quot;font-size: 20px;&quot;&gt;&lt;b&gt;analyze&lt;/b&gt;&lt;/font&gt;" style="whiteSpace=wrap;html=1;rounded=1;fillColor=none;" parent="539x1Jcv6dD9MsZK7sAv-1" vertex="1">
          <mxGeometry x="280" y="540" width="210" height="55" as="geometry" />
        </mxCell>
        <mxCell id="539x1Jcv6dD9MsZK7sAv-23" value="&lt;span style=&quot;font-size: 20px;&quot;&gt;&lt;b&gt;analyzePython&lt;/b&gt;&lt;/span&gt;" style="whiteSpace=wrap;html=1;rounded=1;fillColor=none;" parent="539x1Jcv6dD9MsZK7sAv-1" vertex="1">
          <mxGeometry x="395" y="674" width="155.5" height="56" as="geometry" />
        </mxCell>
        <mxCell id="539x1Jcv6dD9MsZK7sAv-24" value="" style="edgeStyle=orthogonalEdgeStyle;rounded=0;orthogonalLoop=1;jettySize=auto;html=1;" parent="539x1Jcv6dD9MsZK7sAv-1" source="539x1Jcv6dD9MsZK7sAv-25" target="539x1Jcv6dD9MsZK7sAv-27" edge="1">
          <mxGeometry relative="1" as="geometry" />
        </mxCell>
        <mxCell id="539x1Jcv6dD9MsZK7sAv-25" value="&lt;div style=&quot;&quot; class=&quot;lake-content&quot;&gt;&lt;h3 style=&quot;line-height: 28px; margin: 16px 0px 5px;&quot; data-lake-index-type=&quot;2&quot; id=&quot;pqNoD&quot;&gt;&lt;span style=&quot;font-size: 20px;&quot;&gt;visitCreateFunctionStatement&lt;/span&gt;&lt;br&gt;&lt;/h3&gt;&lt;/div&gt;" style="whiteSpace=wrap;html=1;rounded=1;fillColor=none;" parent="539x1Jcv6dD9MsZK7sAv-1" vertex="1">
          <mxGeometry x="529.22" y="440" width="291.56" height="60" as="geometry" />
        </mxCell>
        <mxCell id="539x1Jcv6dD9MsZK7sAv-26" value="&lt;div class=&quot;lake-content&quot;&gt;&lt;div class=&quot;lake-content&quot;&gt;&lt;span class=&quot;ne-text&quot;&gt;DDLStmtExecutor.java&lt;/span&gt;&lt;/div&gt;&lt;/div&gt;" style="text;html=1;align=center;verticalAlign=middle;whiteSpace=wrap;rounded=0;" parent="539x1Jcv6dD9MsZK7sAv-1" vertex="1">
          <mxGeometry x="645" y="440" width="60" height="30" as="geometry" />
        </mxCell>
        <mxCell id="539x1Jcv6dD9MsZK7sAv-27" value="&lt;div style=&quot;font-size: 20px;&quot; class=&quot;lake-content&quot;&gt;&lt;h3 style=&quot;font-size: 20; line-height: 28px; margin: 16px 0 5px 0&quot; data-lake-index-type=&quot;2&quot; id=&quot;pqNoD&quot;&gt;&lt;span style=&quot;font-size: 20px;&quot;&gt;&amp;nbsp;&lt;/span&gt;&lt;span style=&quot;font-size: 20px;&quot; class=&quot;ne-text&quot;&gt;addFunction&lt;/span&gt;&lt;/h3&gt;&lt;/div&gt;" style="whiteSpace=wrap;html=1;rounded=1;fillColor=none;" parent="539x1Jcv6dD9MsZK7sAv-1" vertex="1">
          <mxGeometry x="600" y="540" width="150" height="60" as="geometry" />
        </mxCell>
        <mxCell id="539x1Jcv6dD9MsZK7sAv-28" value="&lt;div class=&quot;lake-content&quot;&gt;&lt;span class=&quot;ne-text&quot;&gt;Database.java&lt;/span&gt;&lt;/div&gt;" style="text;html=1;align=center;verticalAlign=middle;whiteSpace=wrap;rounded=0;" parent="539x1Jcv6dD9MsZK7sAv-1" vertex="1">
          <mxGeometry x="645" y="540" width="60" height="30" as="geometry" />
        </mxCell>
        <mxCell id="539x1Jcv6dD9MsZK7sAv-29" value="&lt;font style=&quot;font-size: 30px;&quot;&gt;SR&lt;/font&gt;&lt;div&gt;&lt;font style=&quot;font-size: 30px;&quot;&gt;create function&lt;/font&gt;&lt;/div&gt;" style="rounded=1;whiteSpace=wrap;html=1;fillColor=#f8cecc;strokeColor=#b85450;" parent="539x1Jcv6dD9MsZK7sAv-1" vertex="1">
          <mxGeometry x="10" y="-80" width="220" height="80" as="geometry" />
        </mxCell>
        <mxCell id="539x1Jcv6dD9MsZK7sAv-30" value="解析 SQL" style="text;html=1;align=left;verticalAlign=middle;whiteSpace=wrap;rounded=0;fontSize=12;" parent="539x1Jcv6dD9MsZK7sAv-1" vertex="1">
          <mxGeometry x="5" y="270" width="65" height="30" as="geometry" />
        </mxCell>
        <mxCell id="539x1Jcv6dD9MsZK7sAv-31" value="执行 stmts" style="text;html=1;align=left;verticalAlign=middle;whiteSpace=wrap;rounded=0;fontSize=12;" parent="539x1Jcv6dD9MsZK7sAv-1" vertex="1">
          <mxGeometry x="610" y="308" width="95" height="30" as="geometry" />
        </mxCell>
        <mxCell id="VdyDWP5Y8kt3VTS5hh4m-3" value="" style="edgeStyle=orthogonalEdgeStyle;rounded=0;orthogonalLoop=1;jettySize=auto;html=1;entryX=0.5;entryY=0;entryDx=0;entryDy=0;" edge="1" parent="539x1Jcv6dD9MsZK7sAv-1" target="VdyDWP5Y8kt3VTS5hh4m-0">
          <mxGeometry relative="1" as="geometry">
            <mxPoint x="60" y="375" as="sourcePoint" />
            <mxPoint x="150" y="440" as="targetPoint" />
            <Array as="points">
              <mxPoint x="60" y="410" />
              <mxPoint x="150" y="410" />
            </Array>
          </mxGeometry>
        </mxCell>
        <mxCell id="VdyDWP5Y8kt3VTS5hh4m-6" style="edgeStyle=orthogonalEdgeStyle;rounded=0;orthogonalLoop=1;jettySize=auto;html=1;entryX=0.533;entryY=0.033;entryDx=0;entryDy=0;entryPerimeter=0;" edge="1" parent="539x1Jcv6dD9MsZK7sAv-1" target="VdyDWP5Y8kt3VTS5hh4m-4">
          <mxGeometry relative="1" as="geometry">
            <mxPoint x="60" y="375" as="sourcePoint" />
            <mxPoint x="-40" y="438" as="targetPoint" />
            <Array as="points">
              <mxPoint x="60" y="410" />
              <mxPoint x="-40" y="410" />
            </Array>
          </mxGeometry>
        </mxCell>
        <mxCell id="539x1Jcv6dD9MsZK7sAv-32" value="&lt;div&gt;&lt;span style=&quot;font-size: 20px;&quot;&gt;SqlParser&lt;/span&gt;&lt;br&gt;&lt;/div&gt;&lt;span style=&quot;font-size: 20px;&quot;&gt;&lt;b&gt;parseWithStarRocksDialect&lt;/b&gt;&lt;/span&gt;" style="rounded=1;whiteSpace=wrap;html=1;fillColor=none;" parent="539x1Jcv6dD9MsZK7sAv-1" vertex="1">
          <mxGeometry x="-70" y="315" width="270" height="60" as="geometry" />
        </mxCell>
        <mxCell id="539x1Jcv6dD9MsZK7sAv-33" value="" style="edgeStyle=orthogonalEdgeStyle;rounded=0;orthogonalLoop=1;jettySize=auto;html=1;" parent="539x1Jcv6dD9MsZK7sAv-1" source="539x1Jcv6dD9MsZK7sAv-34" target="539x1Jcv6dD9MsZK7sAv-20" edge="1">
          <mxGeometry relative="1" as="geometry">
            <Array as="points">
              <mxPoint x="380" y="530" />
              <mxPoint x="380" y="530" />
            </Array>
          </mxGeometry>
        </mxCell>
        <mxCell id="539x1Jcv6dD9MsZK7sAv-34" value="&lt;div class=&quot;lake-content&quot;&gt;&lt;span class=&quot;ne-text&quot;&gt;&lt;font style=&quot;font-size: 20px;&quot;&gt;&lt;b&gt;analyzeStatement&lt;/b&gt;&lt;/font&gt;&lt;/span&gt;&lt;/div&gt;" style="whiteSpace=wrap;html=1;rounded=1;fillColor=none;" parent="539x1Jcv6dD9MsZK7sAv-1" vertex="1">
          <mxGeometry x="287.5" y="440" width="182.5" height="60" as="geometry" />
        </mxCell>
        <mxCell id="539x1Jcv6dD9MsZK7sAv-35" value="&lt;div class=&quot;lake-content&quot;&gt;&lt;span class=&quot;ne-text&quot;&gt;&lt;font style=&quot;font-size: 16px;&quot;&gt;StatementPlanner.java&lt;/font&gt;&lt;/span&gt;&lt;/div&gt;" style="text;html=1;align=center;verticalAlign=middle;whiteSpace=wrap;rounded=0;" parent="539x1Jcv6dD9MsZK7sAv-1" vertex="1">
          <mxGeometry x="351.25" y="338" width="60" height="30" as="geometry" />
        </mxCell>
        <mxCell id="539x1Jcv6dD9MsZK7sAv-36" value="&lt;div class=&quot;lake-content&quot;&gt;&lt;span class=&quot;ne-text&quot;&gt;&lt;font style=&quot;font-size: 16px;&quot;&gt;StatementPlanner.java&lt;/font&gt;&lt;/span&gt;&lt;/div&gt;" style="text;html=1;align=center;verticalAlign=middle;whiteSpace=wrap;rounded=0;" parent="539x1Jcv6dD9MsZK7sAv-1" vertex="1">
          <mxGeometry x="351.25" y="438" width="60" height="30" as="geometry" />
        </mxCell>
        <mxCell id="539x1Jcv6dD9MsZK7sAv-39" value="分析函数的通用属性" style="text;html=1;align=left;verticalAlign=middle;whiteSpace=wrap;rounded=0;" parent="539x1Jcv6dD9MsZK7sAv-1" vertex="1">
          <mxGeometry x="297.25" y="643" width="70" height="30" as="geometry" />
        </mxCell>
        <mxCell id="539x1Jcv6dD9MsZK7sAv-40" value="Python UDF" style="text;html=1;align=center;verticalAlign=middle;whiteSpace=wrap;rounded=0;" parent="539x1Jcv6dD9MsZK7sAv-1" vertex="1">
          <mxGeometry x="470" y="643" width="70" height="30" as="geometry" />
        </mxCell>
        <mxCell id="539x1Jcv6dD9MsZK7sAv-43" value="分析" style="text;html=1;align=left;verticalAlign=middle;whiteSpace=wrap;rounded=0;fontSize=12;" parent="539x1Jcv6dD9MsZK7sAv-1" vertex="1">
          <mxGeometry x="395" y="310" width="95" height="30" as="geometry" />
        </mxCell>
        <mxCell id="539x1Jcv6dD9MsZK7sAv-44" value="在数据库中注册函数" style="text;html=1;align=left;verticalAlign=middle;whiteSpace=wrap;rounded=0;" parent="539x1Jcv6dD9MsZK7sAv-1" vertex="1">
          <mxGeometry x="680" y="508" width="110" height="30" as="geometry" />
        </mxCell>
        <mxCell id="RYO9Yt9h_gRNg-xt5dzV-1" value="&lt;div style=&quot;text-align: left;&quot;&gt;&lt;font style=&quot;&quot;&gt;&lt;span style=&quot;font-size: 16px;&quot;&gt;ConnectProcessor.java&lt;/span&gt;&lt;br&gt;&lt;/font&gt;&lt;/div&gt;&lt;span style=&quot;font-size: 20px;&quot;&gt;&lt;b&gt;executeQuery&lt;/b&gt;&lt;/span&gt;" style="whiteSpace=wrap;html=1;rounded=1;fillColor=none;" parent="539x1Jcv6dD9MsZK7sAv-1" vertex="1">
          <mxGeometry x="211.25" y="60" width="200" height="60" as="geometry" />
        </mxCell>
        <mxCell id="VdyDWP5Y8kt3VTS5hh4m-0" value="&lt;div&gt;&lt;div class=&quot;lake-content&quot;&gt;&lt;span class=&quot;ne-text&quot;&gt;&lt;font style=&quot;font-size: 20px;&quot;&gt;SqlParser.java&lt;/font&gt;&lt;/span&gt;&lt;/div&gt;&lt;/div&gt;&lt;span style=&quot;font-size: 20px;&quot;&gt;&lt;b&gt;visitSingleStatement&lt;/b&gt;&lt;/span&gt;" style="rounded=1;whiteSpace=wrap;html=1;fillColor=none;" vertex="1" parent="539x1Jcv6dD9MsZK7sAv-1">
          <mxGeometry x="50" y="448" width="200" height="60" as="geometry" />
        </mxCell>
        <mxCell id="VdyDWP5Y8kt3VTS5hh4m-4" value="&lt;div&gt;&lt;div class=&quot;lake-content&quot;&gt;&lt;span class=&quot;ne-text&quot;&gt;&lt;font style=&quot;font-size: 20px;&quot;&gt;SqlParser.java&lt;/font&gt;&lt;/span&gt;&lt;/div&gt;&lt;/div&gt;&lt;span style=&quot;font-size: 20px;&quot;&gt;&lt;b&gt;invokeParser&lt;/b&gt;&lt;/span&gt;" style="rounded=1;whiteSpace=wrap;html=1;fillColor=none;" vertex="1" parent="539x1Jcv6dD9MsZK7sAv-1">
          <mxGeometry x="-120" y="448" width="150" height="60" as="geometry" />
        </mxCell>
        <mxCell id="VdyDWP5Y8kt3VTS5hh4m-7" value="ParseTree" style="text;html=1;align=left;verticalAlign=middle;whiteSpace=wrap;rounded=0;fontSize=12;" vertex="1" parent="539x1Jcv6dD9MsZK7sAv-1">
          <mxGeometry x="-36" y="418" width="70" height="30" as="geometry" />
        </mxCell>
        <mxCell id="VdyDWP5Y8kt3VTS5hh4m-8" value="stmt" style="text;html=1;align=left;verticalAlign=middle;whiteSpace=wrap;rounded=0;fontSize=12;" vertex="1" parent="539x1Jcv6dD9MsZK7sAv-1">
          <mxGeometry x="114" y="418" width="33" height="30" as="geometry" />
        </mxCell>
        <mxCell id="VdyDWP5Y8kt3VTS5hh4m-9" value="解析器" style="text;html=1;align=left;verticalAlign=middle;whiteSpace=wrap;rounded=0;fontSize=12;" vertex="1" parent="539x1Jcv6dD9MsZK7sAv-1">
          <mxGeometry x="170" y="130" width="50" height="30" as="geometry" />
        </mxCell>
      </root>
    </mxGraphModel>
  </diagram>
  <diagram id="IJVocHfvC2qU-uQmUknb" name="sr-analyze-java-udf">
    <mxGraphModel dx="607" dy="836" grid="1" gridSize="10" guides="1" tooltips="1" connect="1" arrows="1" fold="1" page="1" pageScale="1" pageWidth="827" pageHeight="1169" math="0" shadow="0">
      <root>
        <mxCell id="0" />
        <mxCell id="1" parent="0" />
        <mxCell id="9t85g0NIzOePQCe_jo7a-1" value="&lt;div style=&quot;&quot; class=&quot;lake-content&quot;&gt;&lt;div style=&quot;&quot; class=&quot;lake-content&quot;&gt;&lt;div style=&quot;line-height: 100%;&quot; class=&quot;lake-content&quot;&gt;&lt;h5 style=&quot;line-height: 100%; margin: 8px 0px 5px;&quot; data-lake-index-type=&quot;2&quot; id=&quot;VZi8U&quot;&gt;&lt;div style=&quot;font-size: 16px;&quot; class=&quot;lake-content&quot;&gt;&lt;span style=&quot;font-weight: normal;&quot; class=&quot;ne-text&quot;&gt;&lt;span style=&quot;background-color: initial;&quot;&gt;&lt;font style=&quot;font-size: 16px;&quot; face=&quot;Helvetica&quot;&gt;CreateFunctionAnalyzer.java&lt;/font&gt;&lt;/span&gt;&lt;/span&gt;&lt;/div&gt;&lt;div style=&quot;font-size: 20px;&quot; class=&quot;lake-content&quot;&gt;&lt;span style=&quot;background-color: initial;&quot;&gt;analyze&lt;/span&gt;&lt;/div&gt;&lt;/h5&gt;&lt;/div&gt;&lt;/div&gt;&lt;/div&gt;" style="rounded=1;whiteSpace=wrap;html=1;fillColor=none;fontSize=20;" parent="1" vertex="1">
          <mxGeometry x="870" y="470" width="220" height="60" as="geometry" />
        </mxCell>
        <mxCell id="9t85g0NIzOePQCe_jo7a-2" value="&lt;div style=&quot;&quot; class=&quot;lake-content&quot;&gt;&lt;div style=&quot;&quot; class=&quot;lake-content&quot;&gt;&lt;div style=&quot;line-height: 100%;&quot; class=&quot;lake-content&quot;&gt;&lt;h5 style=&quot;line-height: 100%; margin: 8px 0px 5px;&quot; data-lake-index-type=&quot;2&quot; id=&quot;VZi8U&quot;&gt;&lt;div style=&quot;&quot; class=&quot;lake-content&quot;&gt;&lt;span style=&quot;font-size: 20px; background-color: initial;&quot;&gt;analyzeCommon&lt;/span&gt;&lt;br&gt;&lt;/div&gt;&lt;/h5&gt;&lt;/div&gt;&lt;/div&gt;&lt;/div&gt;" style="rounded=1;whiteSpace=wrap;html=1;fillColor=none;fontSize=20;" parent="1" vertex="1">
          <mxGeometry x="1250" y="360" width="170" height="60" as="geometry" />
        </mxCell>
        <mxCell id="9t85g0NIzOePQCe_jo7a-3" value="" style="curved=1;endArrow=classic;html=1;rounded=0;entryX=0;entryY=0.5;entryDx=0;entryDy=0;" parent="1" target="9t85g0NIzOePQCe_jo7a-2" edge="1">
          <mxGeometry width="50" height="50" relative="1" as="geometry">
            <mxPoint x="1090" y="490" as="sourcePoint" />
            <mxPoint x="1140" y="440" as="targetPoint" />
            <Array as="points">
              <mxPoint x="1090" y="440" />
              <mxPoint x="1170" y="390" />
            </Array>
          </mxGeometry>
        </mxCell>
        <mxCell id="9t85g0NIzOePQCe_jo7a-4" value="&lt;div style=&quot;&quot; class=&quot;lake-content&quot;&gt;&lt;div style=&quot;&quot; class=&quot;lake-content&quot;&gt;&lt;div style=&quot;line-height: 100%;&quot; class=&quot;lake-content&quot;&gt;&lt;h5 style=&quot;line-height: 100%; margin: 8px 0px 5px;&quot; data-lake-index-type=&quot;2&quot; id=&quot;VZi8U&quot;&gt;&lt;div style=&quot;&quot; class=&quot;lake-content&quot;&gt;&lt;p style=&quot;&quot; class=&quot;MsoNormal&quot;&gt;&lt;span style=&quot;font-size: 20px;&quot;&gt;analyzePython&lt;/span&gt;&lt;br&gt;&lt;/p&gt;&lt;/div&gt;&lt;/h5&gt;&lt;/div&gt;&lt;/div&gt;&lt;/div&gt;" style="rounded=1;whiteSpace=wrap;html=1;fillColor=none;fontSize=20;" parent="1" vertex="1">
          <mxGeometry x="1250" y="555" width="160" height="60" as="geometry" />
        </mxCell>
        <mxCell id="9t85g0NIzOePQCe_jo7a-5" value="" style="curved=1;endArrow=classic;html=1;rounded=0;entryX=0;entryY=0.5;entryDx=0;entryDy=0;exitX=1;exitY=0.75;exitDx=0;exitDy=0;" parent="1" source="9t85g0NIzOePQCe_jo7a-1" target="9t85g0NIzOePQCe_jo7a-4" edge="1">
          <mxGeometry width="50" height="50" relative="1" as="geometry">
            <mxPoint x="1020" y="610" as="sourcePoint" />
            <mxPoint x="1070" y="560" as="targetPoint" />
            <Array as="points">
              <mxPoint x="1090" y="530" />
              <mxPoint x="1120" y="570" />
              <mxPoint x="1170" y="580" />
              <mxPoint x="1210" y="585" />
            </Array>
          </mxGeometry>
        </mxCell>
        <mxCell id="9t85g0NIzOePQCe_jo7a-6" value="&lt;font style=&quot;font-size: 18px;&quot;&gt;分析函数的通用属性&lt;/font&gt;" style="text;html=1;align=center;verticalAlign=middle;whiteSpace=wrap;rounded=0;" parent="1" vertex="1">
          <mxGeometry x="1100" y="430" width="180" height="30" as="geometry" />
        </mxCell>
        <mxCell id="9t85g0NIzOePQCe_jo7a-7" value="&lt;font style=&quot;font-size: 18px;&quot;&gt;创建函数对象实例&lt;/font&gt;" style="text;html=1;align=center;verticalAlign=middle;whiteSpace=wrap;rounded=0;" parent="1" vertex="1">
          <mxGeometry x="1100" y="525" width="180" height="30" as="geometry" />
        </mxCell>
        <mxCell id="9t85g0NIzOePQCe_jo7a-8" value="函数分析的流程图" style="rounded=1;whiteSpace=wrap;html=1;fillColor=#f8cecc;strokeColor=#b85450;fontSize=24;" parent="1" vertex="1">
          <mxGeometry x="850" y="350" width="120" height="60" as="geometry" />
        </mxCell>
        <mxCell id="9t85g0NIzOePQCe_jo7a-13" value="" style="edgeStyle=elbowEdgeStyle;elbow=horizontal;html=1;rounded=1;curved=0;sourcePerimeterSpacing=0;targetPerimeterSpacing=0;startSize=6;endSize=6;strokeColor=#000000;flowAnimation=0;" parent="1" edge="1">
          <mxGeometry relative="1" as="geometry">
            <mxPoint x="1410" y="585" as="sourcePoint" />
            <mxPoint x="1460" y="625" as="targetPoint" />
          </mxGeometry>
        </mxCell>
        <mxCell id="9t85g0NIzOePQCe_jo7a-14" value="" style="edgeStyle=elbowEdgeStyle;elbow=horizontal;html=1;rounded=1;curved=0;sourcePerimeterSpacing=0;targetPerimeterSpacing=0;startSize=6;endSize=6;strokeColor=#000000;shadow=0;flowAnimation=0;" parent="1" edge="1">
          <mxGeometry relative="1" as="geometry">
            <mxPoint x="1410" y="585" as="sourcePoint" />
            <mxPoint x="1460" y="545" as="targetPoint" />
          </mxGeometry>
        </mxCell>
        <mxCell id="9t85g0NIzOePQCe_jo7a-15" value="&lt;font color=&quot;#ff0000&quot;&gt;&lt;span style=&quot;font-size: 20px; background-color: rgb(255, 255, 0);&quot;&gt;校验 input/file 等属性值&lt;/span&gt;&lt;/font&gt;&lt;span style=&quot;background-color: rgb(255, 255, 0); font-size: 20px; color: rgb(255, 0, 0);&quot;&gt;是否合法&lt;/span&gt;" style="text;html=1;align=left;verticalAlign=middle;whiteSpace=wrap;rounded=0;" parent="1" vertex="1">
          <mxGeometry x="1460" y="530" width="290" height="30" as="geometry" />
        </mxCell>
        <mxCell id="9t85g0NIzOePQCe_jo7a-16" value="&lt;font style=&quot;font-size: 20px; background-color: rgb(255, 255, 0);&quot; color=&quot;#ff0000&quot;&gt;创建函数对象实例 ScalarFunction&lt;/font&gt;" style="text;html=1;align=left;verticalAlign=middle;whiteSpace=wrap;rounded=0;" parent="1" vertex="1">
          <mxGeometry x="1460" y="610" width="310" height="30" as="geometry" />
        </mxCell>
      </root>
    </mxGraphModel>
  </diagram>
</mxfile>
